<svg id="Layer_1" data-name="Layer 1" xmlns="http://www.w3.org/2000/svg" width="32" height="32" viewBox="0 0 32 32"><title>pmk-website__app-icons</title><path d="M32,16A16,16,0,1,1,16,0,16,16,0,0,1,32,16Zm0,0" style="fill:#ee4134"/><path d="M13.56,14.81v2.38H16.8a3,3,0,0,1-3.24,2.38,3.57,3.57,0,0,1,0-7.13,3.39,3.39,0,0,1,2.33.88c.49-.49.45-.56,1.71-1.75a6,6,0,1,0-4,10.44c4.95,0,6.15-4.31,5.75-7.19H13.56Z" style="fill:#fff"/><polygon points="24.36 14.93 24.36 12.85 22.87 12.85 22.87 14.93 20.74 14.93 20.74 16.41 22.87 16.41 22.87 18.55 24.36 18.55 24.36 16.41 26.43 16.41 26.43 14.93 24.36 14.93" style="fill:#fff"/></svg>