<svg id="Layer_1" data-name="Layer 1" xmlns="http://www.w3.org/2000/svg" xmlns:xlink="http://www.w3.org/1999/xlink" width="32" height="32" viewBox="0 0 32 32"><defs><clipPath id="clip-path"><path d="M19.33,16A3.33,3.33,0,1,1,16,12.67,3.33,3.33,0,0,1,19.33,16Zm4.81-4c0,1.05.06,1.37.06,4s0,3-.06,4a5.53,5.53,0,0,1-.34,1.86,3.31,3.31,0,0,1-1.9,1.9,5.53,5.53,0,0,1-1.86.34c-1.05,0-1.37.06-4,.06s-3,0-4-.06a5.53,5.53,0,0,1-1.86-.34,3.31,3.31,0,0,1-1.9-1.9A5.53,5.53,0,0,1,7.86,20c0-1.05-.06-1.37-.06-4s0-3,.06-4A5.53,5.53,0,0,1,8.2,10.1a3.31,3.31,0,0,1,1.9-1.9A5.53,5.53,0,0,1,12,7.86c1.05,0,1.37-.06,4-.06s3,0,4,.06a5.53,5.53,0,0,1,1.86.34,3.31,3.31,0,0,1,1.9,1.9A5.53,5.53,0,0,1,24.14,12Zm-3,4A5.14,5.14,0,1,0,16,21.14,5.14,5.14,0,0,0,21.14,16Zm1.4-5.34a1.2,1.2,0,1,0-1.2,1.2A1.2,1.2,0,0,0,22.54,10.66ZM32,16A16,16,0,1,1,16,0,16,16,0,0,1,32,16Zm-6,0c0-2.72,0-3.06-.06-4.12a7.34,7.34,0,0,0-.46-2.43,5.11,5.11,0,0,0-2.92-2.92,7.34,7.34,0,0,0-2.43-.46C19.06,6,18.72,6,16,6s-3.06,0-4.12.06a7.34,7.34,0,0,0-2.43.46A5.11,5.11,0,0,0,6.52,9.45a7.34,7.34,0,0,0-.46,2.43C6,12.94,6,13.28,6,16s0,3.06.06,4.12a7.34,7.34,0,0,0,.46,2.43,5.11,5.11,0,0,0,2.92,2.92,7.34,7.34,0,0,0,2.43.46c1.07,0,1.41.06,4.12.06s3.06,0,4.12-.06a7.34,7.34,0,0,0,2.43-.46,5.11,5.11,0,0,0,2.92-2.92,7.34,7.34,0,0,0,.46-2.43C26,19.06,26,18.72,26,16Z" style="fill:none"/></clipPath><radialGradient id="radial-gradient" cx="12.08" cy="31.17" r="32.04" gradientUnits="userSpaceOnUse"><stop offset="0" stop-color="#ffd87e"/><stop offset="0.32" stop-color="#f66934"/><stop offset="0.7" stop-color="#bc3099"/><stop offset="1" stop-color="#515bd1"/></radialGradient></defs><title>pmk-website__app-icons</title><g style="clip-path:url(#clip-path)"><rect width="32" height="32" style="fill:url(#radial-gradient)"/></g></svg>