<svg id="Layer_1" data-name="Layer 1" xmlns="http://www.w3.org/2000/svg" width="32" height="32" viewBox="0 0 32 32"><title>pmk-website__app-icons</title><path d="M32,16A16,16,0,1,1,16,0,16,16,0,0,1,32,16Zm0,0" style="fill:#006998"/><path d="M9.13,12.2h3.35V23H9.13Zm1.67-5.35A1.94,1.94,0,1,1,8.87,8.79a1.94,1.94,0,0,1,1.94-1.94" style="fill:#fff"/><path d="M14.58,12.2h3.2v1.47h0A3.51,3.51,0,0,1,21,11.94c3.38,0,4,2.23,4,5.13V23H21.66V17.73c0-1.25,0-2.85-1.74-2.85s-2,1.36-2,2.76V23H14.58Z" style="fill:#fff"/></svg>