<svg id="Layer_1" data-name="Layer 1" xmlns="http://www.w3.org/2000/svg" width="32" height="32" viewBox="0 0 32 32"><title>pmk-website__app-icons</title><path d="M32,16A16,16,0,1,1,16,0,16,16,0,0,1,32,16Zm0,0" style="fill:#55acee"/><path d="M25.8,11.5a7.64,7.64,0,0,1-2.2.6A3.85,3.85,0,0,0,25.29,10a7.69,7.69,0,0,1-2.43.93,3.83,3.83,0,0,0-6.52,3.49,10.86,10.86,0,0,1-7.88-4,3.83,3.83,0,0,0,1.18,5.11A3.8,3.8,0,0,1,7.91,15v0A3.83,3.83,0,0,0,11,18.83a3.82,3.82,0,0,1-1.73.07,3.83,3.83,0,0,0,3.57,2.66,7.74,7.74,0,0,1-5.66,1.58A10.88,10.88,0,0,0,23.9,14c0-.17,0-.33,0-.49a7.76,7.76,0,0,0,1.91-2Zm0,0" style="fill:#f1f2f2"/></svg>