<svg id="Layer_1" data-name="Layer 1" xmlns="http://www.w3.org/2000/svg" width="40" height="40" viewBox="0 0 40 40"><title>pmk-website__app-icons</title><path d="M18,13.46l.21.47a.53.53,0,0,1-.31.84,5.92,5.92,0,0,0-3.4,5.59,7.88,7.88,0,0,1,.94-.21A2.41,2.41,0,0,1,18,22.55a2.71,2.71,0,0,1-3,2.77c-2.51,0-3.14-2.56-3.14-4a8.66,8.66,0,0,1,5.33-8.16A.58.58,0,0,1,18,13.46Zm9.51,0,.26.47a.57.57,0,0,1-.37.84,5.78,5.78,0,0,0-3.35,5.59,5.52,5.52,0,0,1,.89-.21,2.38,2.38,0,0,1,2.56,2.4,2.71,2.71,0,0,1-3,2.77c-2.51,0-3.14-2.56-3.14-4a8.66,8.66,0,0,1,5.33-8.16C27.09,13,27.35,13.09,27.51,13.46Z" style="fill:currentColor"/></svg>
