<svg id="Layer_1" data-name="Layer 1" xmlns="http://www.w3.org/2000/svg" width="75" height="44" viewBox="0 0 75 44"><title>app_icons</title><path d="M23.43,39.29c-1.55,0-2.16-.72-2.16-2.08V32.8c0-1.89-.85-2.69-2.1-2.69s-1.93.81-1.93,2.37v6.81h-.76a1.91,1.91,0,0,1-2.08-2.08V32.8c0-1.89-.87-2.69-2.12-2.69s-1.93.87-1.93,2.44v6.74H9.58a2,2,0,0,1-2.06-2.08V32.78c0-3.12,1.63-5.19,5.09-5.19a4.21,4.21,0,0,1,3.48,1.78,3.89,3.89,0,0,1,3.29-1.78,4.46,4.46,0,0,1,4.75,4.83v6.87Z" style="fill:#efaf1e"/><path d="M28.13,43a1.85,1.85,0,0,1-2-1.76v-.55l1.61-.11c1-.06,1.4-.49,2-2.1a36.22,36.22,0,0,1-4-10.64h1.51a1.66,1.66,0,0,1,1.65,1.34,24.6,24.6,0,0,0,2.29,6.59,32.22,32.22,0,0,0,2.23-7.93h1.23c.91,0,1.34.4,1.34,1.34,0,1.21-2,6.42-2.52,7.65C31.31,41.83,30.19,43,28.13,43Z" style="fill:#efaf1e"/><path d="M45.33,25.91v6.83a34.55,34.55,0,0,1,3.5-4.16,2.93,2.93,0,0,1,2.27-.74h1.63v.11a60.28,60.28,0,0,0-4.64,5.19c.91,1.12,1.8,2.29,2.82,3.33A4.81,4.81,0,0,0,53.11,38a1.75,1.75,0,0,1-1.93,1.4,2.79,2.79,0,0,1-1.87-.78,48.73,48.73,0,0,1-4-4.88v5.58l-.91,0c-1.31,0-2-.68-2-2V24h.91A1.73,1.73,0,0,1,45.33,25.91Z" style="fill:#7ac943"/><path d="M56.24,27a1.67,1.67,0,0,1-1.65-1.67,1.66,1.66,0,0,1,1.65-1.65,1.67,1.67,0,0,1,1.67,1.65A1.69,1.69,0,0,1,56.24,27Zm2,12.36c-2.2,0-3.41-1.25-3.41-3.56V28.1h.81a1.86,1.86,0,0,1,2,2.12v5.34c0,1.14.49,1.51,1.74,1.51H60v.61C60,38.91,59.47,39.4,58.26,39.4Z" style="fill:#7ac943"/><path d="M66.33,39.54A5.54,5.54,0,0,1,61,33.78c0-3.75,1.82-6.19,5.15-6.19A3.33,3.33,0,0,1,69,29.39V24h.87a1.75,1.75,0,0,1,2,1.93V34C71.82,37.34,70.26,39.54,66.33,39.54ZM66.19,30c-1.44,0-2.37,1.4-2.37,3.24,0,2.37,1.23,3.92,2.86,3.92S69,36,69,33.88C69,31,67.71,30,66.19,30Z" style="fill:#7ac943"/><path d="M9.22,23.41a4.22,4.22,0,0,1-3.64-2.14v19H4.45a2.46,2.46,0,0,1-2.52-2.49V16.42c0-4.79,2.14-8.11,7.23-8.11,3.83,0,6.56,3.48,6.56,7.12C15.73,20.06,13.42,23.41,9.22,23.41ZM8.6,11.49c-2,0-3.08,1.71-3.08,4.2,0,2.89,1.42,4.53,3.56,4.53,1.74,0,2.95-1.55,2.95-3.86C12,13,10.91,11.49,8.6,11.49Z" style="fill:#3fa9f5"/><path d="M20.76,7.61A2.11,2.11,0,0,1,18.67,5.5a2.09,2.09,0,0,1,2.09-2.09A2.11,2.11,0,0,1,22.88,5.5,2.14,2.14,0,0,1,20.76,7.61Zm2.54,15.61c-2.78,0-4.31-1.58-4.31-4.5V8.95h1a2.35,2.35,0,0,1,2.57,2.68v6.75c0,1.45.62,1.9,2.2,1.9h.67v.78C25.45,22.61,24.83,23.22,23.31,23.22Z" style="fill:#3fa9f5"/><path d="M31.2,6.19v8.62a43.65,43.65,0,0,1,4.42-5.25,3.7,3.7,0,0,1,2.87-.94h2.06v.13a76.07,76.07,0,0,0-5.86,6.56c1.15,1.42,2.28,2.89,3.56,4.2A6.07,6.07,0,0,0,41,21.4a2.21,2.21,0,0,1-2.44,1.77,3.52,3.52,0,0,1-2.36-1,61.58,61.58,0,0,1-5-6.16v7l-1.15,0c-1.66,0-2.46-.86-2.46-2.54V3.81h1.15A2.18,2.18,0,0,1,31.2,6.19Z" style="fill:#3fa9f5"/><path d="M70.79,8A8.4,8.4,0,0,0,63.07,1.2C60.35.92,57.59,1,54.85.93a2,2,0,0,0-1,.17,25.11,25.11,0,0,0-3.17.08h-.94A7.4,7.4,0,0,0,46,1.95a2.31,2.31,0,0,0-.64.43,4.51,4.51,0,0,0-.34.39A6,6,0,0,0,43.88,4a14.18,14.18,0,0,0-1.69,12.81,8.25,8.25,0,0,0,5.58,5.43,18.56,18.56,0,0,0,7.09.74,32.37,32.37,0,0,0,4.58,0h.07a10.16,10.16,0,0,0,1.93-.08,21,21,0,0,0,4.91-.59l.31-.07a5.84,5.84,0,0,0,3.92-4A17.57,17.57,0,0,0,70.79,8Z" style="fill:#efaf1e;fill-rule:evenodd"/><polygon points="52.09 18.76 56.89 22.86 62.79 17.86 64.46 15.14 65.01 13.39 64.31 11.92 62.91 11.33 60.72 11.33 58.55 10.29 56.46 9.81 54.91 9.81 53.61 10.32 52.25 11.01 50.71 11.59 48.73 11.85 48.21 12.89 48.21 14.35 49.04 15.44 51.43 17.17 52.09 18.76" style="fill:#fff;fill-rule:evenodd"/><path d="M60,17.36l-1.46-.13a3.13,3.13,0,0,0-.61,0c-.07,0-.13.1-.2.15s.11.14.18.17.25.09.38.15a2.55,2.55,0,0,0-1.62.42c-.5.27-.93.69-1.43,1l.45-.4c.26-.23.53-.44.78-.68s.31-.34.14-.57-.4-.12-.59,0c-.35.19-.69.42-1,.62a4.74,4.74,0,0,1-.49.21l0-.07c.14-.16.29-.32.41-.5a.8.8,0,0,0,.16-.83c-.1-.23-.26-.24-.42,0s-.22.24-.39.41l-2.28-2.22c-.12-.12-.23-.25-.35-.36a.76.76,0,0,1-.29-.61,4.18,4.18,0,0,0-.17-.79c0-.07,0-.16,0-.23a1.35,1.35,0,0,0-.06-.22c-.09,0-.23,0-.26.11a3.87,3.87,0,0,0-.18.58l-.45-.66a.65.65,0,0,0-.15-.18,1.88,1.88,0,0,0-.3-.13,1,1,0,0,0,0,.38c.09.23.23.44.32.71-.25-.16-.5-.32-.76-.46a.93.93,0,0,0-.34,0c0,.11,0,.26.11.34a6.11,6.11,0,0,0,.58.48,5.86,5.86,0,0,0-.66-.13.92.92,0,0,0-.31.09c.07.09.11.21.2.26.24.13.5.22.81.35-.26,0-.46,0-.66,0a.81.81,0,0,0-.24.11c.07.07.14.18.22.19.38.06.76.1,1.14.12a1.34,1.34,0,0,1,.92.47l2.16,2.42A1.75,1.75,0,0,0,52.29,19a62.21,62.21,0,0,1-6-6.63,10.56,10.56,0,0,1-1.64-3.92A5,5,0,0,1,47.15,3a7.11,7.11,0,0,1,4.22-.93A5.85,5.85,0,0,1,54.72,3.3a9.06,9.06,0,0,1,2,2.35l.2.31c.08-.11.13-.2.19-.28a22.35,22.35,0,0,1,1.62-2.06,5.92,5.92,0,0,1,4.78-1.56,6.47,6.47,0,0,1,3.38,1.1,4.86,4.86,0,0,1,2.36,4.51,9.08,9.08,0,0,1-1.33,4,26.85,26.85,0,0,1-4.5,5.49c-.22.22-.41.48-.59.68l-1.33-1.12c.23-.49.48-1.05.75-1.6A1.41,1.41,0,0,1,63,14.4c.3-.11.61-.22.9-.36.11-.05.18-.18.26-.28a1.41,1.41,0,0,0-.37,0,4,4,0,0,0-.52.17c.25-.23.48-.44.7-.66,0,0,0-.14.07-.21s-.17-.05-.24,0c-.22.09-.43.2-.69.32a5.94,5.94,0,0,0,.39-.61c0-.09,0-.22,0-.34a1.17,1.17,0,0,0-.29.15c-.21.21-.41.43-.66.7.06-.32.13-.57.16-.83a.93.93,0,0,0-.1-.34c-.09.08-.23.15-.27.26-.13.29-.22.6-.33.92a4.25,4.25,0,0,0-.32-.48c-.05-.06-.18-.07-.27-.1s-.06.19,0,.25a4,4,0,0,1,.14.88,1.6,1.6,0,0,1-.37,1.29c-.27.45-.56.88-.82,1.33a.33.33,0,0,1-.46.17,3.74,3.74,0,0,0-.45-.14,1.43,1.43,0,0,0-.27,0c0,.1,0,.24,0,.3a5.82,5.82,0,0,0,.58.45l.17.1Zm-6-6.46-.06.07c-.17.3-.35.6-.49.92a1.34,1.34,0,0,1-.61.82,1.61,1.61,0,0,0-.23.16.92.92,0,0,0,1.24.15,2.11,2.11,0,0,0,.61-.87.82.82,0,0,1,1.4-.32l-.1.06a2.48,2.48,0,0,0-1.23,1.67c0,.08,0,.24.07.27a9.81,9.81,0,0,0,1.09.52,1,1,0,0,0,1.12-.27c.17-.19.31-.4.46-.6a1.32,1.32,0,0,1-1.87.92c-.29-.12-.57-.27-.86-.38s-.42,0-.44.24a.68.68,0,0,0,.15.53,1.48,1.48,0,0,1,.44.73,3.86,3.86,0,0,0,.29.55,2.22,2.22,0,0,0,2.38,1A2.34,2.34,0,0,0,59,15.3a1,1,0,0,1,.26-.42.52.52,0,0,0-.13-.91.33.33,0,0,1-.14-.19,3,3,0,0,0-.89-1.49,2.1,2.1,0,0,0-1.25-.58c-.18,0-.37,0-.56,0-.15-.66-.3-1.3-1.1-1.41A1.1,1.1,0,0,0,53.94,10.9Zm5.21-5.4-.06,0a2.19,2.19,0,0,0-2,3.32.81.81,0,0,1,.09.33A3.5,3.5,0,0,0,58.71,12a2.62,2.62,0,0,0,3.15-.26,4.27,4.27,0,0,0,1.26-3c0-.49-.27-.67-.71-.45s-.57.39-.88.54a1.77,1.77,0,0,1-.71.22,1.89,1.89,0,0,1-1.46-.82c.15.11.28.23.43.32a1.45,1.45,0,0,0,2,0,2.41,2.41,0,0,1,.68-.4.52.52,0,0,1,.75.53,7.33,7.33,0,0,1-.16.89.73.73,0,0,0,0,.34A2.9,2.9,0,0,0,66,11.66a2.25,2.25,0,0,0,1.28-.82c-1,0-1.3-.23-1.61-1.12a1.65,1.65,0,0,1-.11-.4c-.07-.73-.13-1.47-.17-2.2A6.83,6.83,0,0,0,65,4.93a3.27,3.27,0,0,0-3.51-2.1,2.69,2.69,0,0,0-2.27,2C59.2,5,59.18,5.26,59.15,5.5Zm-9-.78a1.53,1.53,0,0,0-2,1.3,2.56,2.56,0,0,0,.55,2c.12.18.32.41.48.41s.29-.29.41-.41a1.9,1.9,0,0,1-.06.24c-.16.43-.45.49-.74.13a3.49,3.49,0,0,1-.4-.62c-.13-.26-.32-.22-.47-.08a.54.54,0,0,0-.18.4A6.36,6.36,0,0,0,48,9c.08.18.19.35.27.53s.08.28.13.42a3,3,0,0,0,4.72,1.4,4,4,0,0,0,1.27-1.71,2.89,2.89,0,0,1-1.6-1.28c-.49-.77-1-1.55-1.46-2.38a9.43,9.43,0,0,1,.61.73c.2.29.35.61.53.92A4.44,4.44,0,0,0,54,9.28c.42.25.62.2.84-.21a3.66,3.66,0,0,0-1.73-5A2.27,2.27,0,0,0,50.15,4.72Z" style="fill:#efaf1e;fill-rule:evenodd"/><path d="M58,19.25a6.72,6.72,0,0,0,2.35.71l-.26.24c-1,.85-2,1.7-3,2.56-.17.15-.28.15-.44,0s-.59-.51-.83-.71c.42-.36.83-.7,1.22-1.06a1.1,1.1,0,0,0,.28-.37,1.52,1.52,0,0,0,0-.44,2.55,2.55,0,0,0-.38.06,2.27,2.27,0,0,0-.35.19c.23-.26.42-.46.58-.68s.3-.61.13-.72-.44.06-.63.17a4.41,4.41,0,0,0-.36.26l1.14-1.28,1.87.41v0l-1-.16a3.46,3.46,0,0,0-.56,0c-.06,0-.12.07-.19.11s.07.16.12.18a7.87,7.87,0,0,0,.78.26c.33.09.67.16,1,.25A4.27,4.27,0,0,0,58,19.25Z" style="fill:#efaf1e;fill-rule:evenodd"/><path d="M59.15,5.5c0-.24.06-.48.11-.72a2.69,2.69,0,0,1,2.27-2A3.27,3.27,0,0,1,65,4.93a6.83,6.83,0,0,1,.36,2.2c0,.74.11,1.47.17,2.2a1.65,1.65,0,0,0,.11.4c.31.88.64,1.12,1.61,1.12a2.25,2.25,0,0,1-1.28.82,2.9,2.9,0,0,1-2.95-1.73.73.73,0,0,1,0-.34,7.33,7.33,0,0,0,.16-.89.52.52,0,0,0-.75-.53,2.41,2.41,0,0,0-.68.4,1.45,1.45,0,0,1-2,0c-.15-.09-.28-.21-.43-.32a1.89,1.89,0,0,0,1.46.82,1.77,1.77,0,0,0,.71-.22c.3-.16.57-.39.88-.54s.75,0,.71.45a4.27,4.27,0,0,1-1.26,3,2.62,2.62,0,0,1-3.15.26,3.5,3.5,0,0,1-1.53-2.84.81.81,0,0,0-.09-.33,2.19,2.19,0,0,1,2-3.32Zm.23-.17a2.85,2.85,0,0,1,2.35-2A3.23,3.23,0,0,1,65,5.3a.4.4,0,0,0,0-.11A3,3,0,0,0,61.48,3,2.39,2.39,0,0,0,59.38,5.34Zm-2.19,3.3v0a4.47,4.47,0,0,1,.65-1.8A1.84,1.84,0,0,0,57.18,8.64Z" style="fill:#fff;fill-rule:evenodd"/><path d="M50.15,4.72A2.27,2.27,0,0,1,53.09,4a3.66,3.66,0,0,1,1.73,5c-.22.41-.42.46-.84.21a4.44,4.44,0,0,1-1.49-1.64c-.18-.31-.33-.63-.53-.92A9.43,9.43,0,0,0,51.34,6c.51.83,1,1.62,1.46,2.38a2.89,2.89,0,0,0,1.6,1.28,4,4,0,0,1-1.27,1.71A3,3,0,0,1,48.42,10c-.05-.14-.07-.29-.13-.42S48.1,9.19,48,9a6.36,6.36,0,0,1-.34-1,.54.54,0,0,1,.18-.4c.16-.15.34-.18.47.08a3.49,3.49,0,0,0,.4.62c.29.36.58.3.74-.13A1.9,1.9,0,0,0,49.54,8c-.12.13-.26.41-.41.41s-.36-.23-.48-.41a2.56,2.56,0,0,1-.55-2A1.53,1.53,0,0,1,50.15,4.72Zm.31-.17A3.15,3.15,0,0,1,54,4.95C53.21,3.91,51.18,3.72,50.46,4.56Z" style="fill:#fff;fill-rule:evenodd"/><path d="M53.94,10.9a1.1,1.1,0,0,1,1.22-.61c.8.11.95.76,1.1,1.41.19,0,.37,0,.56,0a2.1,2.1,0,0,1,1.25.58A3,3,0,0,1,59,13.77a.33.33,0,0,0,.14.19.52.52,0,0,1,.13.91,1,1,0,0,0-.26.42,2.34,2.34,0,0,1-1.67,1.81,2.22,2.22,0,0,1-2.38-1,3.86,3.86,0,0,1-.29-.55,1.48,1.48,0,0,0-.44-.73.68.68,0,0,1-.15-.53c0-.23.23-.32.44-.24s.57.26.86.38a1.32,1.32,0,0,0,1.87-.92c-.15.19-.29.41-.46.6a1,1,0,0,1-1.12.27,9.81,9.81,0,0,1-1.09-.52c-.06,0-.09-.19-.07-.27a2.48,2.48,0,0,1,1.23-1.67l.1-.06a.82.82,0,0,0-1.4.32,2.11,2.11,0,0,1-.61.87.92.92,0,0,1-1.24-.15,1.61,1.61,0,0,1,.23-.16,1.34,1.34,0,0,0,.61-.82c.13-.32.32-.61.49-.92a.56.56,0,0,0,.2,0,1.37,1.37,0,0,1,1.71.41l.18.2c-.06-.7-.41-1.13-1-1.18A1.34,1.34,0,0,0,53.94,10.9Z" style="fill:#fff;fill-rule:evenodd"/><path d="M53.94,10.9A1.34,1.34,0,0,1,55,10.39c.54.05.9.49,1,1.18l-.18-.2A1.37,1.37,0,0,0,54.07,11a.56.56,0,0,1-.2,0Z" style="fill:#efaf1e;fill-rule:evenodd"/><path d="M59.38,5.34A2.39,2.39,0,0,1,61.48,3,3,3,0,0,1,65,5.19a.4.4,0,0,1,0,.11,3.23,3.23,0,0,0-3.29-1.93A2.85,2.85,0,0,0,59.38,5.34Z" style="fill:#efaf1e;fill-rule:evenodd"/><path d="M57.18,8.64a1.84,1.84,0,0,1,.66-1.77,4.47,4.47,0,0,0-.65,1.8Z" style="fill:#efaf1e;fill-rule:evenodd"/><path d="M50.46,4.56c.71-.83,2.74-.64,3.57.39A3.15,3.15,0,0,0,50.46,4.56Z" style="fill:#efaf1e;fill-rule:evenodd"/><path d="M54.51,1.19c-.94.13-1.89.27-2.83.47" style="fill:#efaf1e;fill-rule:evenodd"/><path d="M54.64,1c-2.09.14-4.12.67-6.21.95" style="fill:#efaf1e;fill-rule:evenodd"/></svg>