<svg id="Layer_1" data-name="Layer 1" xmlns="http://www.w3.org/2000/svg" width="144" height="72" viewBox="0 0 144 72"><title>pmk-website__app-icons</title><path d="M39,65.91c-2.51,0-3.5-1.17-3.5-3.37V55.4c0-3.06-1.37-4.36-3.4-4.36C30.25,51,29,52.34,29,54.89v11H27.74a3.09,3.09,0,0,1-3.37-3.37V55.4C24.38,52.34,23,51,20.94,51c-1.79,0-3.13,1.41-3.13,4V65.91H16.58a3.16,3.16,0,0,1-3.33-3.37V55.37c0-5.05,2.65-8.42,8.25-8.42a6.82,6.82,0,0,1,5.63,2.89,6.3,6.3,0,0,1,5.32-2.89c4.26,0,7.7,2.58,7.7,7.83V65.91Z" style="fill:#efaf1e"/><path d="M46.64,71.93a3,3,0,0,1-3.23-2.85v-.89L46,68c1.68-.1,2.27-.79,3.26-3.4-2.44-3.68-5.94-12.88-6.56-17.25h2.44a2.69,2.69,0,0,1,2.68,2.16,39.87,39.87,0,0,0,3.71,10.68,52.21,52.21,0,0,0,3.61-12.85h2c1.48,0,2.16.65,2.16,2.16,0,2-3.23,10.41-4.09,12.4C51.79,70,50,71.93,46.64,71.93Z" style="fill:#efaf1e"/><path d="M74.5,44.24V55.3a56,56,0,0,1,5.67-6.73,4.75,4.75,0,0,1,3.68-1.2h2.65v.17A97.68,97.68,0,0,0,79,56c1.48,1.82,2.92,3.71,4.57,5.39a7.79,7.79,0,0,0,3.57,2.4A2.83,2.83,0,0,1,84,66a4.52,4.52,0,0,1-3-1.27,79,79,0,0,1-6.46-7.9v9l-1.48,0c-2.13,0-3.16-1.1-3.16-3.26V41.18h1.48C73.57,41.18,74.5,42.45,74.5,44.24Z" style="fill:#7ac943"/><path d="M92.19,46.06a2.71,2.71,0,0,1-2.68-2.71,2.68,2.68,0,0,1,2.68-2.68,2.71,2.71,0,0,1,2.71,2.68A2.74,2.74,0,0,1,92.19,46.06Zm3.26,20c-3.57,0-5.53-2-5.53-5.77V47.77h1.31c2.06,0,3.3,1.1,3.3,3.44v8.66c0,1.86.79,2.44,2.82,2.44h.86v1C98.21,65.29,97.41,66.09,95.46,66.09Z" style="fill:#7ac943"/><path d="M108.55,66.33c-4.88,0-8.62-4.26-8.62-9.34,0-6.08,3-10,8.35-10a5.4,5.4,0,0,1,4.6,2.92V41.18h1.41a2.83,2.83,0,0,1,3.16,3.13V57.36C117.44,62.75,114.9,66.33,108.55,66.33Zm-.24-15.49c-2.34,0-3.85,2.27-3.85,5.26,0,3.85,2,6.36,4.64,6.36s3.71-1.92,3.71-5.29C112.81,52.51,110.78,50.83,108.31,50.83Z" style="fill:#7ac943"/><path d="M16,40.18a6.84,6.84,0,0,1-5.9-3.47V67.57H8.27a4,4,0,0,1-4.08-4V28.85c0-7.77,3.47-13.15,11.72-13.15,6.21,0,10.63,5.64,10.63,11.54C26.53,34.75,22.8,40.18,16,40.18ZM15,20.87c-3.21,0-5,2.78-5,6.81C10,32.37,12.3,35,15.77,35c2.82,0,4.77-2.52,4.77-6.25C20.55,23.25,18.72,20.87,15,20.87Z" style="fill:#3fa9f5"/><path d="M34.69,14.58a3.43,3.43,0,0,1-3.38-3.43,3.39,3.39,0,0,1,3.38-3.38,3.43,3.43,0,0,1,3.43,3.38A3.46,3.46,0,0,1,34.69,14.58Zm4.12,25.3c-4.51,0-7-2.56-7-7.29V16.75h1.65c2.6,0,4.17,1.39,4.17,4.34V32c0,2.34,1,3.08,3.56,3.08h1.08v1.26C42.29,38.88,41.29,39.87,38.82,39.87Z" style="fill:#3fa9f5"/><path d="M51.62,12.28v14a70.74,70.74,0,0,1,7.16-8.51,6,6,0,0,1,4.64-1.52h3.34v.22a123.27,123.27,0,0,0-9.5,10.63c1.87,2.3,3.69,4.69,5.77,6.81s3.08,2.56,4.51,3a3.58,3.58,0,0,1-3.95,2.86,5.7,5.7,0,0,1-3.82-1.61,99.79,99.79,0,0,1-8.16-10V39.61l-1.87,0c-2.69,0-4-1.39-4-4.12V8.41h1.87C50.45,8.41,51.62,10,51.62,12.28Z" style="fill:#3fa9f5"/><path d="M115.76,15.13c-1.69-6.43-5.91-10.25-12.51-10.94-4.4-.46-8.87-.3-13.31-.45A3.32,3.32,0,0,0,88.35,4a40.68,40.68,0,0,0-5.14.14l-.63,0-.44,0h-.44c-1.79,0-4.42.09-6.06,1.18a3.75,3.75,0,0,0-1,.69,7.3,7.3,0,0,0-.56.63,9.66,9.66,0,0,0-1.89,2.06,23,23,0,0,0-2.74,20.75,13.36,13.36,0,0,0,9,8.8,30.08,30.08,0,0,0,11.48,1.2,52.45,52.45,0,0,0,7.42,0h.11a16.47,16.47,0,0,0,3.12-.12,34.11,34.11,0,0,0,8-1,3.65,3.65,0,0,0,.51-.11,9.47,9.47,0,0,0,6.36-6.45A28.48,28.48,0,0,0,115.76,15.13Z" style="fill:#efaf1e;fill-rule:evenodd"/><polygon points="85.46 32.65 93.23 39.29 102.8 31.18 105.51 26.78 106.41 23.95 105.26 21.56 103 20.6 99.44 20.6 95.93 18.92 92.54 18.13 90.03 18.13 87.92 18.97 85.72 20.08 83.22 21.02 80.02 21.45 79.17 23.14 79.17 25.5 80.52 27.27 84.4 30.07 85.46 32.65" style="fill:#fff;fill-rule:evenodd"/><path d="M98.23,30.38c-.79-.07-1.58-.15-2.36-.2a5.07,5.07,0,0,0-1,0c-.11,0-.21.16-.32.25.09.09.17.22.28.27s.41.15.61.24a4.13,4.13,0,0,0-2.62.67c-.82.43-1.5,1.12-2.32,1.62l.73-.65c.42-.37.86-.71,1.26-1.1.25-.24.5-.55.23-.92s-.65-.2-1,0c-.58.31-1.12.68-1.69,1a7.68,7.68,0,0,1-.8.34l-.06-.11c.22-.27.46-.52.66-.8a1.3,1.3,0,0,0,.26-1.34c-.16-.37-.42-.38-.68-.07s-.36.39-.63.66l-3.7-3.6c-.19-.19-.37-.4-.57-.58a1.23,1.23,0,0,1-.46-1,6.78,6.78,0,0,0-.27-1.29c0-.12,0-.25,0-.38a2.19,2.19,0,0,0-.1-.36c-.15.06-.37.08-.42.18a6.27,6.27,0,0,0-.28.94l-.73-1.07a1.06,1.06,0,0,0-.24-.3,3,3,0,0,0-.48-.22,1.58,1.58,0,0,0,0,.62c.15.38.38.72.52,1.15-.41-.25-.81-.52-1.24-.75a1.5,1.5,0,0,0-.55,0c.06.18.06.42.18.54a9.9,9.9,0,0,0,.94.77,9.5,9.5,0,0,0-1.07-.22,1.49,1.49,0,0,0-.51.15c.11.14.18.34.32.42.39.2.81.35,1.3.56-.42,0-.75,0-1.07,0A1.31,1.31,0,0,0,80,26c.12.11.22.29.35.31.61.09,1.23.16,1.85.2a2.17,2.17,0,0,1,1.5.76c1.16,1.29,2.31,2.59,3.5,3.92A2.83,2.83,0,0,0,85.79,33c-1-.93-7.83-7.76-9.75-10.75a17.11,17.11,0,0,1-2.65-6.35,8.07,8.07,0,0,1,4.06-8.79,11.51,11.51,0,0,1,6.84-1.5,9.48,9.48,0,0,1,5.43,2,14.68,14.68,0,0,1,3.16,3.81l.32.5c.12-.18.21-.33.31-.46a36.22,36.22,0,0,1,2.63-3.33C98.27,6,101,5.45,103.9,5.59a10.48,10.48,0,0,1,5.48,1.78,7.88,7.88,0,0,1,3.82,7.3A14.71,14.71,0,0,1,111,21.19a43.51,43.51,0,0,1-7.29,8.89c-.36.36-.67.77-1,1.1l-2.15-1.82c.37-.8.78-1.71,1.21-2.6a2.29,2.29,0,0,1,1.32-1.19c.49-.18,1-.36,1.46-.59.17-.08.28-.3.42-.45a2.29,2.29,0,0,0-.6,0,6.52,6.52,0,0,0-.84.27c.41-.38.78-.72,1.14-1.07.07-.07.08-.22.11-.33-.13,0-.28-.09-.39,0-.36.14-.7.32-1.11.52a9.62,9.62,0,0,0,.64-1c.07-.14,0-.36,0-.55a1.89,1.89,0,0,0-.47.25c-.35.34-.67.7-1.07,1.13.1-.52.21-.93.25-1.34a1.5,1.5,0,0,0-.17-.54c-.15.14-.37.25-.44.42-.21.48-.35,1-.53,1.49a6.88,6.88,0,0,0-.51-.78c-.09-.1-.29-.11-.44-.16,0,.14-.09.31,0,.41a6.47,6.47,0,0,1,.22,1.42,2.6,2.6,0,0,1-.6,2.09c-.43.73-.9,1.43-1.34,2.15a.54.54,0,0,1-.75.27,6.06,6.06,0,0,0-.73-.23,2.32,2.32,0,0,0-.43,0c0,.16,0,.39.08.48a9.43,9.43,0,0,0,.93.73,3.14,3.14,0,0,0,.28.17ZM88.46,19.91l-.1.11c-.27.49-.58,1-.79,1.49a2.17,2.17,0,0,1-1,1.34,2.61,2.61,0,0,0-.38.26,1.48,1.48,0,0,0,2,.24,3.42,3.42,0,0,0,1-1.42,1.32,1.32,0,0,1,2.26-.52l-.16.1a4,4,0,0,0-2,2.71c0,.14,0,.39.11.44a15.9,15.9,0,0,0,1.76.84A1.54,1.54,0,0,0,93,25.06c.27-.31.5-.66.74-1a2.14,2.14,0,0,1-3,1.49c-.47-.2-.92-.44-1.39-.62s-.68,0-.72.38a1.11,1.11,0,0,0,.24.86,2.41,2.41,0,0,1,.71,1.19,6.26,6.26,0,0,0,.46.89A3.6,3.6,0,0,0,93.88,30,3.79,3.79,0,0,0,96.59,27a1.64,1.64,0,0,1,.42-.69.84.84,0,0,0-.21-1.47.54.54,0,0,1-.22-.32,4.81,4.81,0,0,0-1.44-2.41,3.4,3.4,0,0,0-2-.95c-.3,0-.6,0-.9,0-.24-1.06-.49-2.11-1.78-2.29A1.78,1.78,0,0,0,88.46,19.91Zm8.44-8.75a.36.36,0,0,1-.1,0,3.54,3.54,0,0,0-3.24,5.38,1.31,1.31,0,0,1,.15.54,5.67,5.67,0,0,0,2.48,4.61,4.24,4.24,0,0,0,5.11-.41,6.91,6.91,0,0,0,2-4.8c.07-.79-.43-1.09-1.15-.73-.49.25-.92.62-1.42.88a2.87,2.87,0,0,1-1.15.36,3.06,3.06,0,0,1-2.37-1.34c.24.18.45.37.7.52,1.35.85,2.17.87,3.3-.08a3.91,3.91,0,0,1,1.1-.65.84.84,0,0,1,1.21.86,11.87,11.87,0,0,1-.25,1.45,1.18,1.18,0,0,0,0,.55A4.7,4.7,0,0,0,108,21.15a3.64,3.64,0,0,0,2.08-1.33c-1.58,0-2.11-.38-2.62-1.81a2.68,2.68,0,0,1-.18-.64c-.11-1.19-.21-2.38-.28-3.57a11.06,11.06,0,0,0-.59-3.56,5.3,5.3,0,0,0-5.69-3.4A4.36,4.36,0,0,0,97.08,10C97,10.38,97,10.77,96.9,11.16ZM82.32,9.89A2.48,2.48,0,0,0,79,12a4.16,4.16,0,0,0,.88,3.17c.19.28.52.66.78.66s.47-.46.66-.67a3.07,3.07,0,0,1-.1.39c-.25.7-.72.79-1.2.21a5.66,5.66,0,0,1-.65-1c-.22-.42-.51-.36-.77-.12a.87.87,0,0,0-.3.65,10.31,10.31,0,0,0,.56,1.54c.12.3.31.57.43.86s.13.46.21.68a4.8,4.8,0,0,0,7.65,2.27,6.4,6.4,0,0,0,2.06-2.77,4.69,4.69,0,0,1-2.59-2.08c-.8-1.24-1.55-2.52-2.37-3.86a15.28,15.28,0,0,1,1,1.19c.32.47.57,1,.86,1.49a7.19,7.19,0,0,0,2.42,2.66c.68.41,1,.33,1.36-.34a5.93,5.93,0,0,0-2.81-8.17C85.31,8.07,83.3,8.26,82.32,9.89Z" style="fill:#efaf1e;fill-rule:evenodd"/><path d="M95,33.43c1.13.78,2.47.82,3.8,1.15L98.4,35c-1.61,1.38-3.23,2.75-4.83,4.15-.28.24-.45.24-.72,0-.46-.43-1-.83-1.34-1.16.67-.58,1.34-1.13,2-1.71a1.78,1.78,0,0,0,.46-.6,2.46,2.46,0,0,0,.07-.71,4.14,4.14,0,0,0-.62.1,3.68,3.68,0,0,0-.57.31c.37-.42.68-.75.95-1.1s.48-1,.22-1.16c-.42-.27-.71.1-1,.28a7.15,7.15,0,0,0-.58.42l1.85-2.08,3,.67v.07c-.56-.09-1.12-.18-1.69-.25a5.61,5.61,0,0,0-.9,0c-.1,0-.2.11-.3.18.06.1.11.26.2.29a12.75,12.75,0,0,0,1.27.42c.54.14,1.09.26,1.63.41A6.92,6.92,0,0,0,95,33.43Z" style="fill:#efaf1e;fill-rule:evenodd"/><path d="M96.9,11.16c.06-.39.09-.78.18-1.17a4.36,4.36,0,0,1,3.68-3.16,5.3,5.3,0,0,1,5.69,3.4,11.06,11.06,0,0,1,.59,3.56c.07,1.19.17,2.38.28,3.57a2.68,2.68,0,0,0,.18.64c.51,1.43,1,1.81,2.62,1.81A3.64,3.64,0,0,1,108,21.15a4.7,4.7,0,0,1-4.78-2.81,1.18,1.18,0,0,1,0-.55,11.87,11.87,0,0,0,.25-1.45.84.84,0,0,0-1.21-.86,3.91,3.91,0,0,0-1.1.65c-1.13.94-2,.93-3.3.08-.24-.15-.46-.34-.7-.52A3.06,3.06,0,0,0,99.61,17a2.87,2.87,0,0,0,1.15-.36c.49-.25.92-.63,1.42-.88.72-.36,1.22-.06,1.15.73a6.91,6.91,0,0,1-2,4.8,4.24,4.24,0,0,1-5.11.41,5.67,5.67,0,0,1-2.48-4.61,1.31,1.31,0,0,0-.15-.54,3.54,3.54,0,0,1,3.24-5.38A.36.36,0,0,0,96.9,11.16Zm.37-.27c.88-2,2.17-3.05,3.8-3.19,2.49-.21,4.16,1,5.32,3.14a.65.65,0,0,0,0-.18c-.91-2.35-2.72-4-5.72-3.47A3.87,3.87,0,0,0,97.27,10.89Zm-3.55,5.35,0,.05a7.25,7.25,0,0,1,1-2.92A3,3,0,0,0,93.72,16.24Z" style="fill:#fff;fill-rule:evenodd"/><path d="M82.32,9.89c1-1.63,3-1.82,4.75-1.11A5.93,5.93,0,0,1,89.89,17c-.35.66-.67.75-1.36.34a7.19,7.19,0,0,1-2.42-2.66c-.29-.49-.54-1-.86-1.49a15.28,15.28,0,0,0-1-1.19c.82,1.35,1.57,2.62,2.37,3.86a4.69,4.69,0,0,0,2.59,2.08,6.4,6.4,0,0,1-2.06,2.77,4.8,4.8,0,0,1-7.65-2.27c-.08-.22-.11-.47-.21-.68s-.31-.57-.43-.86a10.31,10.31,0,0,1-.56-1.54.87.87,0,0,1,.3-.65c.25-.24.55-.29.77.12a5.66,5.66,0,0,0,.65,1c.48.58.95.48,1.2-.21a3.07,3.07,0,0,0,.1-.39c-.19.21-.42.67-.66.67s-.59-.38-.78-.66A4.16,4.16,0,0,1,79,12,2.48,2.48,0,0,1,82.32,9.89Zm.51-.27a5.1,5.1,0,0,1,5.79.63C87.27,8.59,84,8.27,82.83,9.62Z" style="fill:#fff;fill-rule:evenodd"/><path d="M88.46,19.91a1.78,1.78,0,0,1,2-1c1.29.18,1.53,1.22,1.78,2.29.31,0,.61,0,.9,0a3.4,3.4,0,0,1,2,.95,4.81,4.81,0,0,1,1.44,2.41.54.54,0,0,0,.22.32A.84.84,0,0,1,97,26.35a1.64,1.64,0,0,0-.42.69A3.79,3.79,0,0,1,93.88,30,3.6,3.6,0,0,1,90,28.28a6.26,6.26,0,0,1-.46-.89,2.41,2.41,0,0,0-.71-1.19,1.11,1.11,0,0,1-.24-.86c0-.38.37-.52.72-.38s.93.42,1.39.62a2.14,2.14,0,0,0,3-1.49c-.24.31-.47.66-.74,1a1.54,1.54,0,0,1-1.82.45,15.9,15.9,0,0,1-1.76-.84c-.09,0-.14-.3-.11-.44a4,4,0,0,1,2-2.71l.16-.1a1.32,1.32,0,0,0-2.26.52,3.42,3.42,0,0,1-1,1.42,1.48,1.48,0,0,1-2-.24,2.61,2.61,0,0,1,.38-.26,2.17,2.17,0,0,0,1-1.34c.22-.52.52-1,.79-1.49a.91.91,0,0,0,.32,0,2.22,2.22,0,0,1,2.78.66l.3.33c-.1-1.13-.67-1.83-1.55-1.92A2.18,2.18,0,0,0,88.46,19.91Z" style="fill:#fff;fill-rule:evenodd"/><path d="M88.46,19.91a2.18,2.18,0,0,1,1.74-.82c.88.09,1.45.79,1.55,1.92l-.3-.33A2.22,2.22,0,0,0,88.68,20a.91.91,0,0,1-.32,0Z" style="fill:#efaf1e;fill-rule:evenodd"/><path d="M97.27,10.89a3.87,3.87,0,0,1,3.4-3.71c3-.55,4.82,1.13,5.72,3.47a.65.65,0,0,1,0,.18c-1.17-2.14-2.83-3.34-5.32-3.14C99.44,7.84,98.15,8.89,97.27,10.89Z" style="fill:#efaf1e;fill-rule:evenodd"/><path d="M93.72,16.24a3,3,0,0,1,1.06-2.87,7.25,7.25,0,0,0-1,2.92Z" style="fill:#efaf1e;fill-rule:evenodd"/><path d="M82.83,9.62c1.15-1.35,4.44-1,5.79.63A5.1,5.1,0,0,0,82.83,9.62Z" style="fill:#efaf1e;fill-rule:evenodd"/><path d="M89.38,4.18c-1.53.22-3.06.44-4.59.77" style="fill:#efaf1e;fill-rule:evenodd"/><path d="M89.6,3.85c-3.39.22-6.67,1.09-10.06,1.53" style="fill:#efaf1e;fill-rule:evenodd"/><text transform="translate(139.43 67.57) rotate(-90)" style="font-size:30.27602767944336px;fill:#3fa9f5;font-family:MyriadPro-Regular, Myriad Pro">.<tspan x="6.27" y="0" style="letter-spacing:-0.005983359034679367em">c</tspan><tspan x="19.65" y="0" style="letter-spacing:-0.000016127652384580504em">om</tspan></text></svg>