<svg xmlns="http://www.w3.org/2000/svg" xmlns:xlink="http://www.w3.org/1999/xlink" width="2000" height="1200" viewBox="0 0 2000 1200"><defs><style>.Graphic-Style-10,.Graphic-Style-77,.Graphic-Style-9,.cls-1,.cls-10,.cls-11,.cls-12,.cls-13,.cls-14,.cls-15,.cls-16,.cls-17,.cls-18,.cls-19,.cls-2,.cls-20,.cls-21,.cls-22,.cls-23,.cls-24,.cls-26,.cls-27,.cls-28,.cls-29,.cls-3,.cls-30,.cls-31,.cls-4,.cls-5,.cls-6,.cls-7,.cls-8,.cls-9{fill-rule:evenodd}.cls-1{fill:url(#linear-gradient)}.Graphic-Style-9{fill:url(#linear-gradient-2)}.Graphic-Style-10{fill:url(#linear-gradient-3)}.cls-2{fill:url(#linear-gradient-4)}.cls-3{fill:url(#linear-gradient-7)}.cls-4{fill:url(#linear-gradient-8)}.Graphic-Style-5{fill:url(#linear-gradient-10)}.cls-5{fill:url(#linear-gradient-11)}.Graphic-Style-6{fill:url(#linear-gradient-12)}.cls-6{fill:url(#linear-gradient-13)}.cls-7{fill:url(#linear-gradient-14)}.cls-8{fill:url(#linear-gradient-15)}.cls-9{fill:url(#linear-gradient-16)}.cls-10{fill:url(#linear-gradient-17)}.cls-11{fill:url(#linear-gradient-18)}.cls-12{fill:url(#linear-gradient-20)}.cls-13{fill:url(#linear-gradient-22)}.cls-14{fill:url(#linear-gradient-26)}.Graphic-Style-77{fill:url(#linear-gradient-29)}.cls-15{fill:url(#linear-gradient-33)}.cls-16{fill:url(#linear-gradient-35)}.cls-17{fill:url(#linear-gradient-41)}.cls-18{fill:url(#linear-gradient-43)}.cls-19{fill:url(#linear-gradient-45)}.cls-20{fill:url(#linear-gradient-46)}.cls-21{fill:url(#linear-gradient-51)}.cls-22{fill:url(#linear-gradient-52)}.cls-23{fill:url(#linear-gradient-53)}.cls-24{fill:url(#linear-gradient-54)}.cls-25{fill:url(#linear-gradient-59)}.cls-26{fill:url(#linear-gradient-61)}.cls-27{fill:url(#linear-gradient-62)}.cls-28{fill:url(#linear-gradient-63)}.cls-29{fill:url(#linear-gradient-64)}.cls-30{fill:url(#linear-gradient-65)}.cls-31{fill:url(#linear-gradient-76)}</style><linearGradient id="linear-gradient" x1="1089.78" y1="941.86" x2="-88.62" y2="-457.49" gradientUnits="userSpaceOnUse"><stop offset=".01" stop-color="#3fa9f5"/><stop offset="1" stop-color="#3d20a9"/></linearGradient><linearGradient id="linear-gradient-2" x1="-140.68" y1="1179.95" x2="-48.98" y2="411.02" gradientUnits="userSpaceOnUse"><stop offset=".01" stop-color="#486fbc"/><stop offset="1" stop-color="#f2f2f2"/></linearGradient><linearGradient id="linear-gradient-3" x1="10.33" y1="977.76" x2="75.65" y2="319.72" xlink:href="#linear-gradient-2"/><linearGradient id="linear-gradient-4" x1="413.35" y1="799.84" x2="206.45" y2="554.15" xlink:href="#linear-gradient"/><linearGradient id="linear-gradient-7" x1="-42.45" y1="378.3" x2="-242.18" y2="141.12" xlink:href="#linear-gradient"/><linearGradient id="linear-gradient-8" x1="11.75" y1="442.66" x2="-127.17" y2="277.69" xlink:href="#linear-gradient"/><linearGradient id="linear-gradient-10" x1="129.52" y1="539.75" x2="395.29" y2="133.52" gradientUnits="userSpaceOnUse"><stop offset="0" stop-color="#ff7443"/><stop offset="1" stop-color="#ffad3b"/></linearGradient><linearGradient id="linear-gradient-11" x1="566.54" y1="670.84" x2="359.64" y2="425.14" xlink:href="#linear-gradient"/><linearGradient id="linear-gradient-12" x1="310.29" y1="259.1" x2="472.11" y2="11.77" gradientUnits="userSpaceOnUse"><stop offset="0" stop-color="#f6ff43"/><stop offset="1" stop-color="#ffad3b"/></linearGradient><linearGradient id="linear-gradient-13" x1="428.13" y1="137.42" x2="117.7" y2="-231.22" xlink:href="#linear-gradient"/><linearGradient id="linear-gradient-14" x1="173.62" y1="168.77" x2="-33.18" y2="-76.81" xlink:href="#linear-gradient"/><linearGradient id="linear-gradient-15" x1="70.67" y1="148.31" x2="-75.44" y2="-25.2" xlink:href="#linear-gradient"/><linearGradient id="linear-gradient-16" x1="-36.34" y1="21.23" x2="-223.2" y2="-200.66" xlink:href="#linear-gradient"/><linearGradient id="linear-gradient-17" x1="287.81" y1="905.67" x2="51.59" y2="625.17" xlink:href="#linear-gradient"/><linearGradient id="linear-gradient-18" x1="622.11" y1="605.48" x2="344.92" y2="276.32" xlink:href="#linear-gradient"/><linearGradient id="linear-gradient-20" x1="831.25" y1="613.83" x2="449.58" y2="160.6" xlink:href="#linear-gradient"/><linearGradient id="linear-gradient-22" x1="961.81" y1="503.89" x2="580.14" y2="50.66" xlink:href="#linear-gradient"/><linearGradient id="linear-gradient-26" x1="475.36" y1="97.65" x2="164.92" y2="-270.99" xlink:href="#linear-gradient"/><linearGradient id="linear-gradient-29" x1="1281.46" y1="917.22" x2="1057.43" y2="651.18" xlink:href="#linear-gradient"/><linearGradient id="linear-gradient-33" x1="1276.23" y1="31.88" x2="989.45" y2="-308.68" xlink:href="#linear-gradient"/><linearGradient id="linear-gradient-35" x1="1634.96" y1="457.87" x2="1118.08" y2="-155.93" xlink:href="#linear-gradient"/><linearGradient id="linear-gradient-41" x1="668.6" y1="1063.96" x2="699.86" y2="801.88" xlink:href="#linear-gradient-2"/><linearGradient id="linear-gradient-43" x1="431.17" y1="1278.61" x2="489.92" y2="786.02" xlink:href="#linear-gradient-2"/><linearGradient id="linear-gradient-45" x1="130.07" y1="1242.7" x2="188.81" y2="750.11" xlink:href="#linear-gradient-2"/><linearGradient id="linear-gradient-46" x1="25.42" y1="1403.61" x2="91.71" y2="847.78" xlink:href="#linear-gradient-2"/><linearGradient id="linear-gradient-51" x1="230.5" y1="1542.98" x2="273.13" y2="1185.48" xlink:href="#linear-gradient-2"/><linearGradient id="linear-gradient-52" x1="721.46" y1="1517.09" x2="769.17" y2="1117.05" xlink:href="#linear-gradient-2"/><linearGradient id="linear-gradient-53" x1="983.44" y1="1662.64" x2="1058.59" y2="1032.52" xlink:href="#linear-gradient-2"/><linearGradient id="linear-gradient-54" x1="694.44" y1="1623.59" x2="743.14" y2="1215.2" xlink:href="#linear-gradient-2"/><linearGradient id="linear-gradient-59" x1="1475.75" y1="237.65" x2="1508.86" y2="-39.92" xlink:href="#linear-gradient-2"/><linearGradient id="linear-gradient-61" x1="1585.58" y1="327.47" x2="1637.1" y2="-104.54" xlink:href="#linear-gradient-2"/><linearGradient id="linear-gradient-62" x1="1722.51" y1="390.35" x2="1759.81" y2="77.61" xlink:href="#linear-gradient-2"/><linearGradient id="linear-gradient-63" x1="1705.61" y1="341.79" x2="1757.13" y2="-90.22" xlink:href="#linear-gradient-2"/><linearGradient id="linear-gradient-64" x1="1939.45" y1="280.42" x2="1980.87" y2="-66.91" xlink:href="#linear-gradient-2"/><linearGradient id="linear-gradient-65" x1="1887.49" y1="410.03" x2="1924.79" y2="97.28" xlink:href="#linear-gradient-2"/><linearGradient id="linear-gradient-76" x1="1103.17" y1="1676.91" x2="1178.31" y2="1046.8" xlink:href="#linear-gradient-2"/></defs><title>school-cta-section</title><path class="cls-1" d="M1308.6 753.1l-1446.9 27.7 49.8-927.3 1397.1 50.9v848.7z" id="Layer_5" data-name="Layer 5"/><g id="Layer_6" data-name="Layer 6"><path class="Graphic-Style-9" d="M-173.6 488l242-93.6-155.5 409.9-86.5-316.3z"/><path class="Graphic-Style-10" d="M155.8 666.9L68.4 394.4-87.1 804.3l242.9-137.4z"/><path class="cls-2" d="M318.5 514.4L155.8 666.9l301 95.6-138.3-248.1z"/><path class="Graphic-Style-9" d="M68.4 394.4l250.1 120-162.7 152.5-87.4-272.5z"/><path class="Graphic-Style-10" d="M21.6 189l211.5-71.1 85.4 396.5L21.6 189z"/><path class="cls-3" d="M-185.8 146.3L21.6 189l-195.2 299-12.2-341.7z"/><path class="cls-4" d="M68.4 394.4L21.6 189l-195.2 299 242-93.6z"/><path class="Graphic-Style-9" d="M318.5 514.4L21.6 189l46.8 205.4 250.1 120z"/><path class="Graphic-Style-5" d="M513.7 207.3l-280.6-89.4 85.4 396.5 195.2-307.1z"/><path class="cls-5" d="M456.8 762.5l209.4-195.2-347.7-52.9 138.3 248.1z"/><path class="Graphic-Style-6" d="M532 48.7l-18.3 158.6-280.6-89.4L532 48.7z"/><path class="cls-6" d="M92.6-128.2l140.5 246.1L532 48.7 92.6-128.2z"/><path class="cls-7" d="M21.6 189l71-317.2 140.5 246.1L21.6 189z"/><path class="cls-8" d="M-185.8 146.3L92.6-128.2 21.6 189l-207.4-42.7z"/><path class="cls-9" d="M-200-170.9l14.2 317.2L92.6-128.2-200-170.9z"/><path class="cls-10" d="M-87.1 804.3l543.9-41.8-301-95.6-242.9 137.4z"/><path class="cls-11" d="M513.7 207.3l152.5 360-347.7-52.9 195.2-307.1z"/><path class="Graphic-Style-5" d="M532 48.7l207.4-73.2-225.7 231.8L532 48.7z"/><path class="cls-12" d="M666.2 567.3L904.1 551 513.7 207.3l152.5 360z"/><path class="Graphic-Style-6" d="M739.4-24.5l150.5 207.4-376.2 24.4L739.4-24.5z"/><path class="cls-13" d="M904.1 551l-14.2-368.1-376.2 24.4L904.1 551z"/><path class="Graphic-Style-10" d="M944.8 825.5L666.2 567.3 904.1 551l40.7 274.5z"/><path class="Graphic-Style-9" d="M456.8 762.5l488 63-278.6-258.2-209.4 195.2z"/><path class="Graphic-Style-5" d="M739.4-24.5L383.6-240 532 48.7l207.4-73.2z"/><path class="cls-14" d="M92.6-128.2l291-111.8L532 48.7 92.6-128.2z"/><path class="Graphic-Style-6" d="M1070.9 20.3L739.4-24.5l150.5 207.4 181-162.6z"/><path class="Graphic-Style-9" d="M1138 642.5L904.1 551l40.7 274.5 193.2-183z"/><path class="Graphic-Style-77" d="M1432.8 788.9L1138 642.5l-193.2 183 488-36.6zM904.1 551l254.2-42.7-268.4-325.4L904.1 551z"/><path class="Graphic-Style-6" d="M1070.9 20.3l87.4 488-268.4-325.4 181-162.6z"/><path class="Graphic-Style-5" d="M971.2-217.6L739.4-24.5l331.5 44.8-99.7-237.9z"/><path class="cls-15" d="M1070.9 20.3l319.2-85.4-418.9-152.5 99.7 237.9z"/><path class="Graphic-Style-5" d="M1158.3 508.3l455.5-34.6-542.9-453.4s83.3 490 87.4 488z"/><path class="cls-16" d="M1390.1-65.1l223.7 538.8-542.9-453.4 319.2-85.4z"/><path class="Graphic-Style-9" d="M1158.3 508.3L1138 642.5 904.1 551l254.2-42.7z"/><path class="Graphic-Style-10" d="M1613.8 473.7l-182.2 315.6L1138 642.5l20.3-134.2 455.5-34.6z"/><path class="Graphic-Style-5" d="M944.8 825.5L1189 1023l242.6-233.7-486.8 36.2z"/><path class="Graphic-Style-6" d="M1189 1023L954.1 833l-9.3-7.5L919 1119l270-96z"/><path class="Graphic-Style-5" d="M679 935l240 184 25.8-293.5L679 935z"/><path class="cls-17" d="M456.8 762.5L679 935l265.8-109.5-488-63z"/><path class="Graphic-Style-6" d="M919 1119l-318 63 78-247 240 184z"/><path class="cls-18" d="M456.8 762.5L256 1013l423-78-222.2-172.5z"/><path class="Graphic-Style-5" d="M601 1182l-345-169 423-78-78 247z"/><path class="cls-19" d="M-87.1 804.3L256 1013l200.8-250.5-543.9 41.8z"/><path class="cls-20" d="M-54 1118l310-105-343.1-208.7L-54 1118z"/><path class="Graphic-Style-6" d="M162 1158l94-145 345 169-439-24z"/><path class="Graphic-Style-5" d="M-54 1118l216 40 94-145-310 105z"/><path class="Graphic-Style-5" d="M-36 1272l-18-154 216 40-198 114zm637-90l-55 221-384-245 439 24z"/><path class="cls-21" d="M-36 1272l582 131-384-245-198 114z"/><path class="cls-22" d="M903 1340l16-221-318 63 302 158z"/><path class="cls-23" d="M1189 1023l-286 317 16-221 270-96z"/><path class="cls-24" d="M546 1403l357-63-302-158-55 221z"/><path class="Graphic-Style-77" d="M1189 1023l521 29-278.4-262.7L1189 1023z"/><path class="Graphic-Style-77" d="M1681 723l29 329-278.4-262.7L1681 723z"/><path class="Graphic-Style-77" d="M1935 831l-254-108 29 329 225-221zm0 486l-225-265 225-221v486z"/><path class="cls-25" d="M1612 116L1390.1-65.1"/><path class="Graphic-Style-9" d="M1882 254l-270-138 1.8 357.7L1882 254z"/><path class="cls-26" d="M1878-93l-266 209-221.9-181.1L1878-93z"/><path class="cls-27" d="M1792 69l90 185-270-138 180-47z"/><path class="cls-28" d="M1878-93l-86 162-180 47 266-209z"/><path class="cls-29" d="M2058 122l-266-53 86-162 274 39-94 176z"/><path class="cls-30" d="M1882 254l176-132-266-53 90 185z"/><path class="Graphic-Style-77" d="M1390.1-65.1L1612 116l1.8 357.7-223.7-538.8z"/><path class="Graphic-Style-10" d="M1841 547l-227.2-73.3L1882 254l-41 293z"/><path class="Graphic-Style-9" d="M1431.6 789.3L1841 547l-227.2-73.3-182.2 315.6z"/><path class="Graphic-Style-10" d="M1681 723l160-176-409.4 242.3L1681 723z"/><path class="Graphic-Style-77" d="M1935 831l-94-284-160 176 254 108z"/><path class="Graphic-Style-77" d="M2069 599l-228-52 94 284 134-232z"/><path class="Graphic-Style-77" d="M1882 254l187 345-228-52 41-293z"/><path class="Graphic-Style-77" d="M2058 122l11 477-187-345 176-132zm-673 1207l-196-306 521 29-325 277z"/><path class="Graphic-Style-5" d="M1935 1317l-550 12 325-277 225 265z"/><path class="cls-31" d="M903 1340l482-11-196-306-286 317z"/><path class="Graphic-Style-77" d="M2175 1091l-240-260 134-232 106 492z"/><path class="Graphic-Style-77" d="M1935 1317l240-226-240-260v486z"/></g></svg>