<svg data-name="Layer 1" xmlns="http://www.w3.org/2000/svg" xmlns:xlink="http://www.w3.org/1999/xlink" width="64" height="64" viewBox="0 0 64 64"><defs><linearGradient id="c" x1="48.29" y1="48.29" x2="58.03" y2="58.03" gradientUnits="userSpaceOnUse"><stop offset="0" stop-color="#ffce4a"/><stop offset="1" stop-color="#fb6f56"/></linearGradient><linearGradient id="a" x1="74.59" y1="22" x2="100.55" y2="-3.96" gradientTransform="matrix(.71 .19 -.71 .19 -41.33 18.9)" gradientUnits="userSpaceOnUse"><stop offset="0" stop-color="#fb6f56"/><stop offset=".85" stop-color="#ffce4a" stop-opacity="0"/></linearGradient><linearGradient id="d" x1="16.5" y1="19.91" x2="42.46" y2="-6.05" gradientTransform="matrix(.71 .19 -.71 .19 21.27 7.6)" xlink:href="#a"/><linearGradient id="e" x1="60.04" y1="7.46" x2="86" y2="-18.5" gradientTransform="matrix(.71 .19 -.71 .19 -37.33 28.55)" xlink:href="#a"/><linearGradient id="f" x1="31.04" y1="34.46" x2="57" y2="8.5" gradientTransform="matrix(.71 .19 -.71 .19 25.27 5.94)" xlink:href="#a"/><linearGradient id="g" x1="60.04" y1="7.46" x2="86" y2="-18.5" gradientTransform="rotate(45 -13.356 -43.272)" xlink:href="#a"/><linearGradient id="h" x1="31.04" y1="34.46" x2="57" y2="8.5" gradientTransform="rotate(45 44.005 21.498)" xlink:href="#a"/><linearGradient id="b" x1="29.66" y1="10.01" x2="79.66" y2="10.01" gradientTransform="matrix(.78 0 0 1.8 -2.21 6.39)" gradientUnits="userSpaceOnUse"><stop offset="0" stop-color="#fff" stop-opacity=".3"/><stop offset="1" stop-color="#fff" stop-opacity="0"/></linearGradient><linearGradient id="i" x1="29.66" y1="16.31" x2="79.66" y2="16.31" gradientTransform="matrix(.78 0 0 1.8 -10.21 3.08)" xlink:href="#b"/><linearGradient id="j" x1="29.66" y1="22.61" x2="79.66" y2="22.61" gradientTransform="matrix(.78 0 0 1.8 -18.21 -.24)" xlink:href="#b"/><linearGradient id="k" x1="29.66" y1="10.01" x2="79.66" y2="10.01" gradientTransform="matrix(.78 0 0 1.8 -2.21 22.39)" xlink:href="#b"/><linearGradient id="l" x1="29.66" y1="16.31" x2="79.66" y2="16.31" gradientTransform="matrix(.78 0 0 1.8 -10.21 3.08)" xlink:href="#b"/><linearGradient id="m" x1="29.66" y1="22.61" x2="79.66" y2="22.61" gradientTransform="matrix(.78 0 0 1.8 -18.21 -16.24)" xlink:href="#b"/><linearGradient id="n" x1="46.46" y1="46.46" x2="17.17" y2="17.17" gradientUnits="userSpaceOnUse"><stop offset="0" stop-color="#5971b9"/><stop offset="1" stop-color="#3fa9f5"/></linearGradient><linearGradient id="o" x1="17.25" y1="17.25" x2="46.37" y2="46.37" gradientUnits="userSpaceOnUse"><stop offset="0" stop-color="#5971b9"/><stop offset="1" stop-color="#3fa9f5"/></linearGradient><linearGradient id="p" x1="25.23" y1="23.6" x2="39.18" y2="37.56" xlink:href="#c"/><linearGradient id="q" x1="51.42" y1="50.06" x2="27.08" y2="25.73" gradientUnits="userSpaceOnUse"><stop offset="0" stop-color="#fff" stop-opacity="0"/><stop offset="1" stop-color="#fff" stop-opacity=".2"/></linearGradient><linearGradient id="r" x1="32.73" y1="31.1" x2="19.13" y2="17.5" gradientUnits="userSpaceOnUse"><stop offset="0" stop-color="#fff" stop-opacity=".3"/><stop offset="1" stop-color="#fff"/></linearGradient><linearGradient id="s" x1="10.25" y1="6.25" x2="21.46" y2="17.46" xlink:href="#c"/><linearGradient id="t" x1="7.54" y1="20.54" x2="16.85" y2="29.85" xlink:href="#c"/><linearGradient id="u" x1="23.92" y1="26.76" x2="25.73" y2="26.76" gradientUnits="userSpaceOnUse"><stop offset="0" stop-color="#fff"/><stop offset="1" stop-color="#fff"/></linearGradient><linearGradient id="v" x1="45.17" y1="34.17" x2="51.4" y2="40.4" xlink:href="#c"/></defs><title>pmk-website-icons</title><path d="M55 51a2 2 0 0 1-2-2 1 1 0 0 0-2 0 2 2 0 0 1-2 2 1 1 0 0 0 0 2 2 2 0 0 1 2 2 1 1 0 0 0 2 0 2 2 0 0 1 2-2 1 1 0 0 0 0-2z" fill="url(#c)"/><path transform="rotate(135 14.18 37.681)" fill="url(#a)" d="M-1.82 36.17h32v3.03h-32z"/><path transform="rotate(-45 37.18 14.68)" fill="url(#d)" d="M21.18 13.17h32v3.03h-32z"/><path transform="rotate(135 18.18 41.682)" fill="url(#e)" d="M2.18 40.17h32v3.03h-32z"/><path transform="rotate(-45 41.179 18.683)" fill="url(#f)" d="M25.18 17.17h32v3.03h-32z"/><path transform="rotate(135 21.002 44.502)" fill="url(#g)" d="M5 39h32v11H5z"/><path transform="rotate(-45 43.998 21.505)" fill="url(#h)" d="M28 16h32v11H28z"/><path d="M54.47 29L35 9.53a4.64 4.64 0 0 0-6.57 0L9.53 28.47a4.64 4.64 0 0 0 0 6.57L29 54.47a4.62 4.62 0 0 0 4.57 1.16 4 4 0 0 0 2.59-1.15l18.31-18.35a4 4 0 0 0 1.15-2.59A4.62 4.62 0 0 0 54.47 29z" fill="#333e48"/><g opacity=".23"><path transform="rotate(45 40.192 24.378)" fill="url(#b)" d="M20.8 21.69h38.79v5.39H20.8z"/><path transform="rotate(45 32.195 32.386)" fill="url(#i)" d="M12.8 29.69h38.79v5.39H12.8z"/><path transform="rotate(45 24.194 40.381)" fill="url(#j)" d="M4.8 37.69h38.79v5.39H4.8z"/><path transform="rotate(135 40.19 40.377)" fill="url(#k)" d="M20.8 37.69h38.79v5.39H20.8z"/><path transform="rotate(135 32.192 32.378)" fill="url(#l)" d="M12.8 29.69h38.79v5.39H12.8z"/><path transform="rotate(135 24.194 24.379)" fill="url(#m)" d="M4.8 21.69h38.79v5.39H4.8z"/></g><path d="M56 26.34L37.66 8a8 8 0 0 0-11.32 0L8 26.34a8 8 0 0 0 0 11.32L26.34 56a8 8 0 0 0 11.31 0L56 37.66a8 8 0 0 0 0-11.31zm-2.83 8.48L34.83 53.17a4 4 0 0 1-5.66 0L10.83 34.83a4 4 0 0 1 0-5.66l18.34-18.34a4 4 0 0 1 5.66 0l18.34 18.34a4 4 0 0 1 0 5.66z" fill="url(#n)"/><path d="M30.47 54.47L12.13 36.13a4 4 0 0 1 0-5.66l18.34-18.34a4 4 0 0 1 5.66 0l18.34 18.34a4 4 0 0 1 1.15 3.07A4.62 4.62 0 0 0 54.47 29L35 9.53a4.64 4.64 0 0 0-6.57 0L9.53 28.47a4.64 4.64 0 0 0 0 6.57L29 54.47a4.62 4.62 0 0 0 4.57 1.16 4 4 0 0 1-3.1-1.16z" fill="#262e36"/><path d="M54.59 27.76L36.24 9.41a6 6 0 0 0-8.48 0L9.41 27.76a6 6 0 0 0 0 8.48l18.35 18.35a6 6 0 0 0 8.48 0l18.35-18.35a6 6 0 0 0 0-8.48zm-1.41 7.07L34.83 53.17a4 4 0 0 1-5.66 0L10.83 34.83a4 4 0 0 1 0-5.66l18.34-18.34a4 4 0 0 1 5.66 0l18.34 18.34a4 4 0 0 1 0 5.66z" fill="url(#o)"/><path d="M38.38 25.18A6.32 6.32 0 0 0 33.15 27a6.33 6.33 0 0 0-10.85 4.2 6.41 6.41 0 0 0 1.8 4.8l7.13 7.13a2.71 2.71 0 0 0 3.84 0L42.19 36a6.4 6.4 0 0 0-3.82-10.82z" fill="#262e36"/><path d="M37.29 24.09A6.32 6.32 0 0 0 32.06 26a6.33 6.33 0 0 0-10.85 4.16A6.41 6.41 0 0 0 23 34.9l7.14 7.1A2.71 2.71 0 0 0 34 42l7.1-7.1a6.4 6.4 0 0 0-3.82-10.82z" fill="url(#p)"/><path d="M39.26 24.65a6.13 6.13 0 0 0-2-.57 6.32 6.32 0 0 0-5.2 1.92 6.33 6.33 0 0 0-10.85 4.16A6.41 6.41 0 0 0 23 34.9l4.17 4.17a15.37 15.37 0 0 0 12.09-14.42z" fill="url(#q)"/><path d="M37.29 24.09A6.32 6.32 0 0 0 32.06 26a6.33 6.33 0 0 0-10.85 4.16A6.41 6.41 0 0 0 23 34.9l7.14 7.1A2.71 2.71 0 0 0 34 42l7.1-7.1a6.4 6.4 0 0 0-3.81-10.82zm2.54 9.54l-7.13 7.12a.91.91 0 0 1-1.28 0l-7.13-7.13a4.58 4.58 0 0 1 3.55-7.76 4.53 4.53 0 0 1 .93.17 4.88 4.88 0 0 1 2.12 1.31l.26.27a1.26 1.26 0 0 0 1.8 0l.39-.4a4.48 4.48 0 0 1 3.23-1.36h.11a4.74 4.74 0 0 1 4.39 4 4.65 4.65 0 0 1-1.25 3.77z" opacity=".37" fill="url(#r)"/><path d="M14.77 5.46a2.5 2.5 0 0 1-3.54 0 1.25 1.25 0 0 0-1.77 1.77 2.5 2.5 0 0 1 0 3.54 1.25 1.25 0 0 0 1.77 1.77 2.5 2.5 0 0 1 3.54 0 1.25 1.25 0 0 0 1.77-1.77 2.5 2.5 0 0 1 0-3.54 1.25 1.25 0 0 0-1.77-1.77z" fill="url(#s)"/><path d="M12.25 22.25a1.5 1.5 0 0 1-1.5-1.5.75.75 0 0 0-1.5 0 1.5 1.5 0 0 1-1.5 1.5.75.75 0 0 0 0 1.5 1.5 1.5 0 0 1 1.5 1.5.75.75 0 0 0 1.5 0 1.5 1.5 0 0 1 1.5-1.5.75.75 0 0 0 0-1.5z" fill="url(#t)"/><circle cx="24.82" cy="26.76" r=".9" fill="url(#u)"/><path d="M48.5 35.5a1 1 0 0 1-1-1 .5.5 0 0 0-1 0 1 1 0 0 1-1 1 .5.5 0 0 0 0 1 1 1 0 0 1 1 1 .5.5 0 0 0 1 0 1 1 0 0 1 1-1 .5.5 0 0 0 0-1z" fill="url(#v)"/></svg>