<svg id="Layer_1" data-name="Layer 1" xmlns="http://www.w3.org/2000/svg" xmlns:xlink="http://www.w3.org/1999/xlink" width="48" height="48" viewBox="0 0 48 48"><defs><clipPath id="clip-path"><rect y="-411" width="1600" height="400" style="fill:none"/></clipPath><linearGradient id="linear-gradient" x1="715.04" y1="179.86" x2="936.88" y2="-519.51" gradientUnits="userSpaceOnUse"><stop offset="0" stop-color="#fff" stop-opacity="0.2"/><stop offset="1" stop-color="#fff" stop-opacity="0"/></linearGradient><linearGradient id="linear-gradient-2" y1="24" x2="48" y2="24" gradientUnits="userSpaceOnUse"><stop offset="0" stop-color="#3a65c7"/><stop offset="1" stop-color="#3fa9f5"/></linearGradient></defs><title>ayyyy</title><g style="clip-path:url(#clip-path)"><path d="M-125.83-356.63h0A149,149,0,0,1,61.64-310.47l36.29,50.38a112,112,0,0,0,121.82,42.2h0A388.26,388.26,0,0,1,547.3-164.32h0a97.43,97.43,0,0,0,106,3l75.53-46c117.72-71.76,271.17-36.83,346.23,78.81h0a97.43,97.43,0,0,0,105.62,41.4h0A380.23,380.23,0,0,1,1426.16-67h0a327.94,327.94,0,0,0,174.61,24.54l113.77-15.17a97.43,97.43,0,0,1,92.25,40.08h0c45.45,63.86.72,152.53-77.66,153.91l-1131.81,20a97.43,97.43,0,0,1-14.56-.84L-194.34,52.14c-64.36-8.56-102.5-76.48-76.3-135.89L-171.4-308.8A97.43,97.43,0,0,1-125.83-356.63Z" style="fill:url(#linear-gradient)"/></g><circle cx="24" cy="24" r="22" style="fill:none;stroke-miterlimit:10;stroke-width:4px;stroke:url(#linear-gradient-2)"/></svg>