<svg id="Layer_1" data-name="Layer 1" xmlns="http://www.w3.org/2000/svg" width="144" height="72" viewBox="0 0 144 72">
  <defs>
    <style>
      .cls-1, .cls-4 {
        fill: #efaf1e;
      }

      .cls-2 {
        fill: #7ac943;
      }

      .cls-3 {
        fill: #3fa9f5;
      }

      .cls-4, .cls-5 {
        fill-rule: evenodd;
      }

      .cls-5 {
        fill: #fff;
      }
    </style>
  </defs>
  <title>pmk-website__app-icons</title>
  <g>
    <path class="cls-1" d="M39,65.9c-2.5,0-3.5-1.2-3.5-3.4V55.4c0-3.1-1.4-4.4-3.4-4.4S29,52.3,29,54.9v11H27.7a3.1,3.1,0,0,1-3.4-3.4V55.4c0-3.1-1.4-4.4-3.4-4.4s-3.1,1.4-3.1,4V65.9H16.6a3.2,3.2,0,0,1-3.3-3.4V55.4c0-5.1,2.6-8.4,8.2-8.4a6.8,6.8,0,0,1,5.6,2.9,6.3,6.3,0,0,1,5.3-2.9c4.3,0,7.7,2.6,7.7,7.8V65.9Z"/>
    <path class="cls-1" d="M46.6,71.9a3,3,0,0,1-3.2-2.9v-.9L46,68c1.7-.1,2.3-.8,3.3-3.4-2.4-3.7-5.9-12.9-6.6-17.2h2.4a2.7,2.7,0,0,1,2.7,2.2,39.9,39.9,0,0,0,3.7,10.7,52.2,52.2,0,0,0,3.6-12.8h2c1.5,0,2.2.7,2.2,2.2s-3.2,10.4-4.1,12.4C51.8,70,50,71.9,46.6,71.9Z"/>
    <path class="cls-2" d="M74.5,44.2V55.3a56,56,0,0,1,5.7-6.7,4.8,4.8,0,0,1,3.7-1.2h2.6v.2A97.7,97.7,0,0,0,79,56c1.5,1.8,2.9,3.7,4.6,5.4a7.8,7.8,0,0,0,3.6,2.4A2.8,2.8,0,0,1,84,66a4.5,4.5,0,0,1-3-1.3,79,79,0,0,1-6.5-7.9v9H73c-2.1,0-3.2-1.1-3.2-3.3V41.2h1.5C73.6,41.2,74.5,42.4,74.5,44.2Z"/>
    <path class="cls-2" d="M92.2,46.1a2.7,2.7,0,0,1-2.7-2.7,2.7,2.7,0,0,1,2.7-2.7,2.7,2.7,0,0,1,2.7,2.7A2.7,2.7,0,0,1,92.2,46.1Zm3.3,20c-3.6,0-5.5-2-5.5-5.8V47.8h1.3c2.1,0,3.3,1.1,3.3,3.4v8.7c0,1.9.8,2.4,2.8,2.4h.9v1C98.2,65.3,97.4,66.1,95.5,66.1Z"/>
    <path class="cls-2" d="M108.5,66.3c-4.9,0-8.6-4.3-8.6-9.3s3-10,8.3-10a5.4,5.4,0,0,1,4.6,2.9V41.2h1.4a2.8,2.8,0,0,1,3.2,3.1V57.4C117.4,62.8,114.9,66.3,108.5,66.3Zm-.2-15.5c-2.3,0-3.8,2.3-3.8,5.3s2,6.4,4.6,6.4,3.7-1.9,3.7-5.3S110.8,50.8,108.3,50.8Z"/>
    <path class="cls-3" d="M16,40.2a6.8,6.8,0,0,1-5.9-3.5V65.6H8.3a4,4,0,0,1-4.1-4V28.9c0-7.8,3.5-13.1,11.7-13.1,6.2,0,10.6,5.6,10.6,11.5C26.5,34.8,22.8,40.2,16,40.2ZM15,20.9c-3.2,0-5,2.8-5,6.8S12.3,35,15.8,35s4.8-2.5,4.8-6.2C20.5,23.3,18.7,20.9,15,20.9Z"/>
    <path class="cls-3" d="M34.7,14.6a3.4,3.4,0,0,1-3.4-3.4,3.4,3.4,0,0,1,3.4-3.4,3.4,3.4,0,0,1,3.4,3.4A3.5,3.5,0,0,1,34.7,14.6Zm4.1,25.3c-4.5,0-7-2.6-7-7.3V16.7h1.6c2.6,0,4.2,1.4,4.2,4.3V32c0,2.3,1,3.1,3.6,3.1h1.1v1.3C42.3,38.9,41.3,39.9,38.8,39.9Z"/>
    <path class="cls-3" d="M51.6,12.3v14a70.7,70.7,0,0,1,7.2-8.5,6,6,0,0,1,4.6-1.5h3.3v.2a123.3,123.3,0,0,0-9.5,10.6c1.9,2.3,3.7,4.7,5.8,6.8s3.1,2.6,4.5,3a3.6,3.6,0,0,1-3.9,2.9,5.7,5.7,0,0,1-3.8-1.6,99.8,99.8,0,0,1-8.2-10V39.6H49.8c-2.7,0-4-1.4-4-4.1V8.4h1.9C50.4,8.4,51.6,10,51.6,12.3Z"/>
    <g>
      <path class="cls-4" d="M115.8,15.1c-1.7-6.4-5.9-10.2-12.5-10.9-4.4-.5-8.9-.3-13.3-.4a3.3,3.3,0,0,0-1.6.3,40.7,40.7,0,0,0-5.1.1H81.7c-1.8,0-4.4.1-6.1,1.2l-1,.7-.6.6a9.7,9.7,0,0,0-1.9,2.1,23,23,0,0,0-2.7,20.8,13.4,13.4,0,0,0,9,8.8,30.1,30.1,0,0,0,11.5,1.2,52.5,52.5,0,0,0,7.4,0h.1a16.5,16.5,0,0,0,3.1-.1,34.1,34.1,0,0,0,8-1h.5a9.5,9.5,0,0,0,6.4-6.5A28.5,28.5,0,0,0,115.8,15.1Z"/>
      <g>
        <polygon class="cls-5" points="85.5 32.7 93.2 39.3 102.8 31.2 105.5 26.8 106.4 23.9 105.3 21.6 103 20.6 99.4 20.6 95.9 18.9 92.5 18.1 90 18.1 87.9 19 85.7 20.1 83.2 21 80 21.4 79.2 23.1 79.2 25.5 80.5 27.3 84.4 30.1 85.5 32.7"/>
        <g>
          <path class="cls-4" d="M98.2,30.4l-2.4-.2h-1l-.3.2.3.3.6.2a4.1,4.1,0,0,0-2.6.7c-.8.4-1.5,1.1-2.3,1.6l.7-.7,1.3-1.1c.2-.2.5-.6.2-.9s-.7-.2-1,0l-1.7,1-.8.3h-.1l.7-.8a1.3,1.3,0,0,0,.3-1.3c-.2-.4-.4-.4-.7-.1l-.6.7-3.7-3.6-.6-.6a1.2,1.2,0,0,1-.5-1,6.8,6.8,0,0,0-.3-1.3c0-.1,0-.3,0-.4v-.4l-.4.2a6.3,6.3,0,0,0-.3.9l-.7-1.1-.2-.3-.5-.2a1.6,1.6,0,0,0,0,.6c.2.4.4.7.5,1.1l-1.2-.7h-.5c.1.2.1.4.2.5l.9.8-1.1-.2h-.5c.1.1.2.3.3.4l1.3.6H80.4L80,26l.3.3,1.9.2a2.2,2.2,0,0,1,1.5.8l3.5,3.9A2.8,2.8,0,0,0,85.8,33c-1-.9-7.8-7.8-9.7-10.7a17.1,17.1,0,0,1-2.7-6.3,8.1,8.1,0,0,1,4.1-8.8,11.5,11.5,0,0,1,6.8-1.5,9.5,9.5,0,0,1,5.4,2,14.7,14.7,0,0,1,3.2,3.8l.3.5.3-.5a36.2,36.2,0,0,1,2.6-3.3c2.1-2.2,4.9-2.7,7.8-2.5a10.5,10.5,0,0,1,5.5,1.8,7.9,7.9,0,0,1,3.8,7.3,14.7,14.7,0,0,1-2.2,6.5,43.5,43.5,0,0,1-7.3,8.9l-1,1.1-2.2-1.8,1.2-2.6a2.3,2.3,0,0,1,1.3-1.2l1.5-.6.4-.4h-.6l-.8.3,1.1-1.1c.1-.1.1-.2.1-.3h-.4l-1.1.5.6-1c.1-.1,0-.4,0-.5l-.5.2-1.1,1.1c.1-.5.2-.9.3-1.3a1.5,1.5,0,0,0-.2-.5c-.2.1-.4.2-.4.4s-.4,1-.5,1.5l-.5-.8-.4-.2c0,.1-.1.3,0,.4a6.5,6.5,0,0,1,.2,1.4,2.6,2.6,0,0,1-.6,2.1l-1.3,2.2a.5.5,0,0,1-.7.3l-.7-.2H97c0,.2,0,.4.1.5l.9.7.3.2ZM88.5,19.9h-.1c-.3.5-.6,1-.8,1.5a2.2,2.2,0,0,1-1,1.3l-.4.3a1.5,1.5,0,0,0,2,.2,3.4,3.4,0,0,0,1-1.4,1.3,1.3,0,0,1,2.3-.5h-.2a4,4,0,0,0-2,2.7c0,.1,0,.4.1.4l1.8.8a1.5,1.5,0,0,0,1.8-.4l.7-1a2.1,2.1,0,0,1-3,1.5L89.3,25c-.4-.1-.7,0-.7.4a1.1,1.1,0,0,0,.2.9,2.4,2.4,0,0,1,.7,1.2l.5.9A3.6,3.6,0,0,0,93.9,30,3.8,3.8,0,0,0,96.6,27a1.6,1.6,0,0,1,.4-.7.8.8,0,0,0-.2-1.5l-.2-.3a4.8,4.8,0,0,0-1.4-2.4,3.4,3.4,0,0,0-2-.9h-.9c-.2-1.1-.5-2.1-1.8-2.3A1.8,1.8,0,0,0,88.5,19.9Zm8.4-8.7h-.1a3.5,3.5,0,0,0-3.2,5.4,1.3,1.3,0,0,1,.1.5,5.7,5.7,0,0,0,2.5,4.6,4.2,4.2,0,0,0,5.1-.4,6.9,6.9,0,0,0,2-4.8c.1-.8-.4-1.1-1.1-.7l-1.4.9a2.9,2.9,0,0,1-1.2.4,3.1,3.1,0,0,1-2.4-1.3l.7.5c1.3.9,2.2.9,3.3-.1l1.1-.6a.8.8,0,0,1,1.2.9,11.9,11.9,0,0,1-.3,1.4,1.2,1.2,0,0,0,0,.5,4.7,4.7,0,0,0,4.8,2.8,3.6,3.6,0,0,0,2.1-1.3c-1.6,0-2.1-.4-2.6-1.8a2.7,2.7,0,0,1-.2-.6c-.1-1.2-.2-2.4-.3-3.6a11.1,11.1,0,0,0-.6-3.6,5.3,5.3,0,0,0-5.7-3.4A4.4,4.4,0,0,0,97.1,10C97,10.4,97,10.8,96.9,11.2ZM82.3,9.9A2.5,2.5,0,0,0,79,12a4.2,4.2,0,0,0,.9,3.2c.2.3.5.7.8.7s.5-.5.7-.7v.4c-.3.7-.7.8-1.2.2l-.6-1c-.2-.4-.5-.4-.8-.1a.9.9,0,0,0-.3.7,10.3,10.3,0,0,0,.6,1.5l.4.9.2.7a4.8,4.8,0,0,0,7.6,2.3,6.4,6.4,0,0,0,2.1-2.8,4.7,4.7,0,0,1-2.6-2.1L84.3,12l1,1.2.9,1.5a7.2,7.2,0,0,0,2.4,2.7c.7.4,1,.3,1.4-.3a5.9,5.9,0,0,0-2.8-8.2C85.3,8.1,83.3,8.3,82.3,9.9Z"/>
          <path class="cls-4" d="M95,33.4c1.1.8,2.5.8,3.8,1.1l-.4.4-4.8,4.1c-.3.2-.5.2-.7,0L91.5,38l2-1.7a1.8,1.8,0,0,0,.5-.6,2.5,2.5,0,0,0,.1-.7h-.6l-.6.3.9-1.1c.4-.5.5-1,.2-1.2s-.7.1-1,.3l-.6.4,1.8-2.1,3,.7h0l-1.7-.3h-.9l-.3.2.2.3,1.3.4,1.6.4A6.9,6.9,0,0,0,95,33.4Z"/>
          <path class="cls-5" d="M96.9,11.2c.1-.4.1-.8.2-1.2a4.4,4.4,0,0,1,3.7-3.2,5.3,5.3,0,0,1,5.7,3.4,11.1,11.1,0,0,1,.6,3.6c.1,1.2.2,2.4.3,3.6a2.7,2.7,0,0,0,.2.6c.5,1.4,1,1.8,2.6,1.8a3.6,3.6,0,0,1-2.1,1.3,4.7,4.7,0,0,1-4.8-2.8,1.2,1.2,0,0,1,0-.5,11.9,11.9,0,0,0,.3-1.4.8.8,0,0,0-1.2-.9l-1.1.6c-1.1.9-2,.9-3.3.1l-.7-.5A3.1,3.1,0,0,0,99.6,17a2.9,2.9,0,0,0,1.2-.4l1.4-.9c.7-.4,1.2-.1,1.1.7a6.9,6.9,0,0,1-2,4.8,4.2,4.2,0,0,1-5.1.4,5.7,5.7,0,0,1-2.5-4.6,1.3,1.3,0,0,0-.1-.5,3.5,3.5,0,0,1,3.2-5.4Zm.4-.3c.9-2,2.2-3.1,3.8-3.2s4.2,1,5.3,3.1a.7.7,0,0,0,0-.2c-.9-2.3-2.7-4-5.7-3.5A3.9,3.9,0,0,0,97.3,10.9Zm-3.6,5.3h0a7.2,7.2,0,0,1,1-2.9A3,3,0,0,0,93.7,16.2Z"/>
          <path class="cls-5" d="M82.3,9.9c1-1.6,3-1.8,4.8-1.1A5.9,5.9,0,0,1,89.9,17c-.4.7-.7.7-1.4.3a7.2,7.2,0,0,1-2.4-2.7l-.9-1.5-1-1.2,2.4,3.9a4.7,4.7,0,0,0,2.6,2.1,6.4,6.4,0,0,1-2.1,2.8,4.8,4.8,0,0,1-7.6-2.3l-.2-.7-.4-.9a10.3,10.3,0,0,1-.6-1.5.9.9,0,0,1,.3-.7c.3-.2.5-.3.8.1l.6,1c.5.6.9.5,1.2-.2v-.4c-.2.2-.4.7-.7.7s-.6-.4-.8-.7A4.2,4.2,0,0,1,79,12,2.5,2.5,0,0,1,82.3,9.9Zm.5-.3a5.1,5.1,0,0,1,5.8.6C87.3,8.6,84,8.3,82.8,9.6Z"/>
          <path class="cls-5" d="M88.5,19.9a1.8,1.8,0,0,1,2-1c1.3.2,1.5,1.2,1.8,2.3h.9a3.4,3.4,0,0,1,2,.9,4.8,4.8,0,0,1,1.4,2.4l.2.3a.8.8,0,0,1,.2,1.5,1.6,1.6,0,0,0-.4.7A3.8,3.8,0,0,1,93.9,30,3.6,3.6,0,0,1,90,28.3l-.5-.9a2.4,2.4,0,0,0-.7-1.2,1.1,1.1,0,0,1-.2-.9c0-.4.4-.5.7-.4l1.4.6a2.1,2.1,0,0,0,3-1.5l-.7,1a1.5,1.5,0,0,1-1.8.4l-1.8-.8c-.1,0-.1-.3-.1-.4a4,4,0,0,1,2-2.7h.2a1.3,1.3,0,0,0-2.3.5,3.4,3.4,0,0,1-1,1.4,1.5,1.5,0,0,1-2-.2l.4-.3a2.2,2.2,0,0,0,1-1.3c.2-.5.5-1,.8-1.5h.3a2.2,2.2,0,0,1,2.8.7l.3.3c-.1-1.1-.7-1.8-1.6-1.9A2.2,2.2,0,0,0,88.5,19.9Z"/>
          <path class="cls-4" d="M88.5,19.9a2.2,2.2,0,0,1,1.7-.8c.9.1,1.5.8,1.6,1.9l-.3-.3a2.2,2.2,0,0,0-2.8-.7h-.2Z"/>
          <path class="cls-4" d="M97.3,10.9a3.9,3.9,0,0,1,3.4-3.7c3-.6,4.8,1.1,5.7,3.5a.7.7,0,0,1,0,.2c-1.2-2.1-2.8-3.3-5.3-3.1S98.2,8.9,97.3,10.9Z"/>
          <path class="cls-4" d="M93.7,16.2a3,3,0,0,1,1.1-2.9,7.2,7.2,0,0,0-1,2.9Z"/>
          <path class="cls-4" d="M82.8,9.6c1.2-1.4,4.4-1,5.8.6A5.1,5.1,0,0,0,82.8,9.6Z"/>
        </g>
      </g>
      <path class="cls-4" d="M89.4,4.2l-4.6.8"/>
      <path class="cls-4" d="M89.6,3.8c-3.4.2-6.7,1.1-10.1,1.5"/>
    </g>
    <g>
      <path class="cls-3" d="M137.9,66a1.8,1.8,0,0,1-1.9-1.8,1.9,1.9,0,1,1,1.9,1.8Z"/>
      <path class="cls-3" d="M138.9,48.7a9.8,9.8,0,0,1,.8,4.2c0,4.4-3,7.3-7.5,7.3a7.4,7.4,0,0,1-7.8-7.9,8.9,8.9,0,0,1,.8-3.7l2.1.6a6.2,6.2,0,0,0-.7,3.1c0,3.4,2.5,5.2,5.5,5.2s5.5-2.2,5.5-5.1a7.6,7.6,0,0,0-.7-3.3Z"/>
      <path class="cls-3" d="M132,32.5c5.4,0,7.8,3.8,7.8,7.3s-2.9,7-7.5,7-7.8-3.2-7.8-7.3S127.5,32.5,132,32.5Zm.2,11.6c3.2,0,5.6-1.8,5.6-4.5s-2.4-4.5-5.7-4.5-5.6,1.2-5.6,4.4S129.3,44.1,132.1,44.1Z"/>
      <path class="cls-3" d="M128.7,29.1h-4V26.9h2.4a5.1,5.1,0,0,1-2.7-4.6,4.3,4.3,0,0,1,2.9-4.1h0a6,6,0,0,1-1.9-1.6,5,5,0,0,1-1-3.2c0-1.9,1.3-4.8,6.4-4.8h8.6v2.6h-8.3c-2.8,0-4.5,1-4.5,3.2a3.4,3.4,0,0,0,2.4,3.1l1.3.2h9.1v2.6h-8.8c-2.3,0-4,1-4,3.1a3.6,3.6,0,0,0,2.7,3.3l1.3.2h8.8v2.6Z"/>
    </g>
  </g>
</svg>
