<svg xmlns="http://www.w3.org/2000/svg" xmlns:xlink="http://www.w3.org/1999/xlink" width="2000" height="1200" viewBox="0 0 2000 1200">
  <defs>
    <style>
      .Graphic-Style-10, .Graphic-Style-77, .Graphic-Style-9, .cls-1, .cls-10, .cls-11, .cls-12, .cls-13, .cls-14, .cls-15, .cls-16, .cls-17, .cls-18, .cls-19, .cls-2, .cls-20, .cls-21, .cls-22, .cls-23, .cls-24, .cls-26, .cls-27, .cls-28, .cls-29, .cls-3, .cls-30, .cls-31, .cls-4, .cls-5, .cls-6, .cls-7, .cls-8, .cls-9 {
        fill-rule: evenodd;
      }

      .cls-1 {
        fill: url(#linear-gradient);
      }

      .Graphic-Style-9 {
        fill: url(#linear-gradient-2);
      }

      .Graphic-Style-10 {
        fill: url(#linear-gradient-3);
      }

      .cls-2 {
        fill: url(#linear-gradient-4);
      }

      .cls-3 {
        fill: url(#linear-gradient-7);
      }

      .cls-4 {
        fill: url(#linear-gradient-8);
      }

      .Graphic-Style-5 {
        fill: url(#linear-gradient-10);
      }

      .cls-5 {
        fill: url(#linear-gradient-11);
      }

      .Graphic-Style-6 {
        fill: url(#linear-gradient-12);
      }

      .cls-6 {
        fill: url(#linear-gradient-13);
      }

      .cls-7 {
        fill: url(#linear-gradient-14);
      }

      .cls-8 {
        fill: url(#linear-gradient-15);
      }

      .cls-9 {
        fill: url(#linear-gradient-16);
      }

      .cls-10 {
        fill: url(#linear-gradient-17);
      }

      .cls-11 {
        fill: url(#linear-gradient-18);
      }

      .cls-12 {
        fill: url(#linear-gradient-20);
      }

      .cls-13 {
        fill: url(#linear-gradient-22);
      }

      .cls-14 {
        fill: url(#linear-gradient-26);
      }

      .Graphic-Style-77 {
        fill: url(#linear-gradient-29);
      }

      .cls-15 {
        fill: url(#linear-gradient-33);
      }

      .cls-16 {
        fill: url(#linear-gradient-35);
      }

      .cls-17 {
        fill: url(#linear-gradient-41);
      }

      .cls-18 {
        fill: url(#linear-gradient-43);
      }

      .cls-19 {
        fill: url(#linear-gradient-45);
      }

      .cls-20 {
        fill: url(#linear-gradient-46);
      }

      .cls-21 {
        fill: url(#linear-gradient-51);
      }

      .cls-22 {
        fill: url(#linear-gradient-52);
      }

      .cls-23 {
        fill: url(#linear-gradient-53);
      }

      .cls-24 {
        fill: url(#linear-gradient-54);
      }

      .cls-25 {
        fill: url(#linear-gradient-59);
      }

      .cls-26 {
        fill: url(#linear-gradient-61);
      }

      .cls-27 {
        fill: url(#linear-gradient-62);
      }

      .cls-28 {
        fill: url(#linear-gradient-63);
      }

      .cls-29 {
        fill: url(#linear-gradient-64);
      }

      .cls-30 {
        fill: url(#linear-gradient-65);
      }

      .cls-31 {
        fill: url(#linear-gradient-76);
      }
    </style>
    <linearGradient id="linear-gradient" x1="1089.78" y1="941.86" x2="-88.62" y2="-457.49" gradientUnits="userSpaceOnUse">
      <stop offset="0.01" stop-color="#3fa9f5"/>
      <stop offset="1" stop-color="#3d20a9"/>
    </linearGradient>
    <linearGradient id="linear-gradient-2" x1="-140.68" y1="1179.95" x2="-48.98" y2="411.02" gradientUnits="userSpaceOnUse">
      <stop offset="0.01" stop-color="#486fbc"/>
      <stop offset="1" stop-color="#f2f2f2"/>
    </linearGradient>
    <linearGradient id="linear-gradient-3" x1="10.33" y1="977.76" x2="75.65" y2="319.72" xlink:href="#linear-gradient-2"/>
    <linearGradient id="linear-gradient-4" x1="413.35" y1="799.84" x2="206.45" y2="554.15" xlink:href="#linear-gradient"/>
    <linearGradient id="linear-gradient-7" x1="-42.45" y1="378.3" x2="-242.18" y2="141.12" xlink:href="#linear-gradient"/>
    <linearGradient id="linear-gradient-8" x1="11.75" y1="442.66" x2="-127.17" y2="277.69" xlink:href="#linear-gradient"/>
    <linearGradient id="linear-gradient-10" x1="129.52" y1="539.75" x2="395.29" y2="133.52" gradientUnits="userSpaceOnUse">
      <stop offset="0" stop-color="#ff7443"/>
      <stop offset="1" stop-color="#ffad3b"/>
    </linearGradient>
    <linearGradient id="linear-gradient-11" x1="566.54" y1="670.84" x2="359.64" y2="425.14" xlink:href="#linear-gradient"/>
    <linearGradient id="linear-gradient-12" x1="310.29" y1="259.1" x2="472.11" y2="11.77" gradientUnits="userSpaceOnUse">
      <stop offset="0" stop-color="#f6ff43"/>
      <stop offset="1" stop-color="#ffad3b"/>
    </linearGradient>
    <linearGradient id="linear-gradient-13" x1="428.13" y1="137.42" x2="117.7" y2="-231.22" xlink:href="#linear-gradient"/>
    <linearGradient id="linear-gradient-14" x1="173.62" y1="168.77" x2="-33.18" y2="-76.81" xlink:href="#linear-gradient"/>
    <linearGradient id="linear-gradient-15" x1="70.67" y1="148.31" x2="-75.44" y2="-25.2" xlink:href="#linear-gradient"/>
    <linearGradient id="linear-gradient-16" x1="-36.34" y1="21.23" x2="-223.2" y2="-200.66" xlink:href="#linear-gradient"/>
    <linearGradient id="linear-gradient-17" x1="287.81" y1="905.67" x2="51.59" y2="625.17" xlink:href="#linear-gradient"/>
    <linearGradient id="linear-gradient-18" x1="622.11" y1="605.48" x2="344.92" y2="276.32" xlink:href="#linear-gradient"/>
    <linearGradient id="linear-gradient-20" x1="831.25" y1="613.83" x2="449.58" y2="160.6" xlink:href="#linear-gradient"/>
    <linearGradient id="linear-gradient-22" x1="961.81" y1="503.89" x2="580.14" y2="50.66" xlink:href="#linear-gradient"/>
    <linearGradient id="linear-gradient-26" x1="475.36" y1="97.65" x2="164.92" y2="-270.99" xlink:href="#linear-gradient"/>
    <linearGradient id="linear-gradient-29" x1="1281.46" y1="917.22" x2="1057.43" y2="651.18" xlink:href="#linear-gradient"/>
    <linearGradient id="linear-gradient-33" x1="1276.23" y1="31.88" x2="989.45" y2="-308.68" xlink:href="#linear-gradient"/>
    <linearGradient id="linear-gradient-35" x1="1634.96" y1="457.87" x2="1118.08" y2="-155.93" xlink:href="#linear-gradient"/>
    <linearGradient id="linear-gradient-41" x1="668.6" y1="1063.96" x2="699.86" y2="801.88" xlink:href="#linear-gradient-2"/>
    <linearGradient id="linear-gradient-43" x1="431.17" y1="1278.61" x2="489.92" y2="786.02" xlink:href="#linear-gradient-2"/>
    <linearGradient id="linear-gradient-45" x1="130.07" y1="1242.7" x2="188.81" y2="750.11" xlink:href="#linear-gradient-2"/>
    <linearGradient id="linear-gradient-46" x1="25.42" y1="1403.61" x2="91.71" y2="847.78" xlink:href="#linear-gradient-2"/>
    <linearGradient id="linear-gradient-51" x1="230.5" y1="1542.98" x2="273.13" y2="1185.48" xlink:href="#linear-gradient-2"/>
    <linearGradient id="linear-gradient-52" x1="721.46" y1="1517.09" x2="769.17" y2="1117.05" xlink:href="#linear-gradient-2"/>
    <linearGradient id="linear-gradient-53" x1="983.44" y1="1662.64" x2="1058.59" y2="1032.52" xlink:href="#linear-gradient-2"/>
    <linearGradient id="linear-gradient-54" x1="694.44" y1="1623.59" x2="743.14" y2="1215.2" xlink:href="#linear-gradient-2"/>
    <linearGradient id="linear-gradient-59" x1="1475.75" y1="237.65" x2="1508.86" y2="-39.92" xlink:href="#linear-gradient-2"/>
    <linearGradient id="linear-gradient-61" x1="1585.58" y1="327.47" x2="1637.1" y2="-104.54" xlink:href="#linear-gradient-2"/>
    <linearGradient id="linear-gradient-62" x1="1722.51" y1="390.35" x2="1759.81" y2="77.61" xlink:href="#linear-gradient-2"/>
    <linearGradient id="linear-gradient-63" x1="1705.61" y1="341.79" x2="1757.13" y2="-90.22" xlink:href="#linear-gradient-2"/>
    <linearGradient id="linear-gradient-64" x1="1939.45" y1="280.42" x2="1980.87" y2="-66.91" xlink:href="#linear-gradient-2"/>
    <linearGradient id="linear-gradient-65" x1="1887.49" y1="410.03" x2="1924.79" y2="97.28" xlink:href="#linear-gradient-2"/>
    <linearGradient id="linear-gradient-76" x1="1103.17" y1="1676.91" x2="1178.31" y2="1046.8" xlink:href="#linear-gradient-2"/>
  </defs>
  <title>school-cta-section</title>
  <g id="Layer_5" data-name="Layer 5">
    <polygon class="cls-1" points="1308.6 753.1 -138.3 780.8 -88.5 -146.5 1308.6 -95.6 1308.6 753.1"/>
  </g>
  <g id="Layer_6" data-name="Layer 6">
    <polygon class="Graphic-Style-9" points="-173.6 488 68.4 394.4 -87.1 804.3 -173.6 488"/>
    <polygon class="Graphic-Style-10" points="155.8 666.9 68.4 394.4 -87.1 804.3 155.8 666.9"/>
    <polygon class="cls-2" points="318.5 514.4 155.8 666.9 456.8 762.5 318.5 514.4"/>
    <polygon class="Graphic-Style-9" points="68.4 394.4 318.5 514.4 155.8 666.9 68.4 394.4"/>
    <polygon class="Graphic-Style-10" points="21.6 189 233.1 117.9 318.5 514.4 21.6 189"/>
    <polygon class="cls-3" points="-185.8 146.3 21.6 189 -173.6 488 -185.8 146.3"/>
    <polygon class="cls-4" points="68.4 394.4 21.6 189 -173.6 488 68.4 394.4"/>
    <polygon class="Graphic-Style-9" points="318.5 514.4 21.6 189 68.4 394.4 318.5 514.4"/>
    <polygon class="Graphic-Style-5" points="513.7 207.3 233.1 117.9 318.5 514.4 513.7 207.3"/>
    <polygon class="cls-5" points="456.8 762.5 666.2 567.3 318.5 514.4 456.8 762.5"/>
    <polygon class="Graphic-Style-6" points="532 48.7 513.7 207.3 233.1 117.9 532 48.7"/>
    <polygon class="cls-6" points="92.6 -128.2 233.1 117.9 532 48.7 92.6 -128.2"/>
    <polygon class="cls-7" points="21.6 189 92.6 -128.2 233.1 117.9 21.6 189"/>
    <polygon class="cls-8" points="-185.8 146.3 92.6 -128.2 21.6 189 -185.8 146.3"/>
    <polygon class="cls-9" points="-200 -170.9 -185.8 146.3 92.6 -128.2 -200 -170.9"/>
    <polygon class="cls-10" points="-87.1 804.3 456.8 762.5 155.8 666.9 -87.1 804.3"/>
    <polygon class="cls-11" points="513.7 207.3 666.2 567.3 318.5 514.4 513.7 207.3"/>
    <polygon class="Graphic-Style-5" points="532 48.7 739.4 -24.5 513.7 207.3 532 48.7"/>
    <polygon class="cls-12" points="666.2 567.3 904.1 551 513.7 207.3 666.2 567.3"/>
    <polygon class="Graphic-Style-6" points="739.4 -24.5 889.9 182.9 513.7 207.3 739.4 -24.5"/>
    <polygon class="cls-13" points="904.1 551 889.9 182.9 513.7 207.3 904.1 551"/>
    <polygon class="Graphic-Style-10" points="944.8 825.5 666.2 567.3 904.1 551 944.8 825.5"/>
    <polygon class="Graphic-Style-9" points="456.8 762.5 944.8 825.5 666.2 567.3 456.8 762.5"/>
    <polygon class="Graphic-Style-5" points="739.4 -24.5 383.6 -240 532 48.7 739.4 -24.5"/>
    <polygon class="cls-14" points="92.6 -128.2 383.6 -240 532 48.7 92.6 -128.2"/>
    <polygon class="Graphic-Style-6" points="1070.9 20.3 739.4 -24.5 889.9 182.9 1070.9 20.3"/>
    <polygon class="Graphic-Style-9" points="1138 642.5 904.1 551 944.8 825.5 1138 642.5"/>
    <polygon class="Graphic-Style-77" points="1432.8 788.9 1138 642.5 944.8 825.5 1432.8 788.9"/>
    <polygon class="Graphic-Style-77" points="904.1 551 1158.3 508.3 889.9 182.9 904.1 551"/>
    <polygon class="Graphic-Style-6" points="1070.9 20.3 1158.3 508.3 889.9 182.9 1070.9 20.3"/>
    <polygon class="Graphic-Style-5" points="971.2 -217.6 739.4 -24.5 1070.9 20.3 971.2 -217.6"/>
    <polygon class="cls-15" points="1070.9 20.3 1390.1 -65.1 971.2 -217.6 1070.9 20.3"/>
    <path class="Graphic-Style-5" d="M1158.3,508.3l455.5-34.6L1070.9,20.3S1154.2,510.3,1158.3,508.3Z"/>
    <polygon class="cls-16" points="1390.1 -65.1 1613.8 473.7 1070.9 20.3 1390.1 -65.1"/>
    <polygon class="Graphic-Style-9" points="1158.3 508.3 1138 642.5 904.1 551 1158.3 508.3"/>
    <polygon class="Graphic-Style-10" points="1613.8 473.7 1431.6 789.3 1138 642.5 1158.3 508.3 1613.8 473.7"/>
    <polygon class="Graphic-Style-5" points="944.8 825.5 1189 1023 1431.6 789.3 944.8 825.5"/>
    <polygon class="Graphic-Style-6" points="1189 1023 954.1 833 944.8 825.5 919 1119 1189 1023"/>
    <polygon class="Graphic-Style-5" points="679 935 919 1119 944.8 825.5 679 935"/>
    <polygon class="cls-17" points="456.8 762.5 679 935 944.8 825.5 456.8 762.5"/>
    <polygon class="Graphic-Style-6" points="919 1119 601 1182 679 935 919 1119"/>
    <polygon class="cls-18" points="456.8 762.5 256 1013 679 935 456.8 762.5"/>
    <polygon class="Graphic-Style-5" points="601 1182 256 1013 679 935 601 1182"/>
    <polygon class="cls-19" points="-87.1 804.3 256 1013 456.8 762.5 -87.1 804.3"/>
    <polygon class="cls-20" points="-54 1118 256 1013 -87.1 804.3 -54 1118"/>
    <polygon class="Graphic-Style-6" points="162 1158 256 1013 601 1182 162 1158"/>
    <polygon class="Graphic-Style-5" points="-54 1118 162 1158 256 1013 -54 1118"/>
    <polygon class="Graphic-Style-5" points="-36 1272 -54 1118 162 1158 -36 1272"/>
    <polygon class="Graphic-Style-5" points="601 1182 546 1403 162 1158 601 1182"/>
    <polygon class="cls-21" points="-36 1272 546 1403 162 1158 -36 1272"/>
    <polygon class="cls-22" points="903 1340 919 1119 601 1182 903 1340"/>
    <polygon class="cls-23" points="1189 1023 903 1340 919 1119 1189 1023"/>
    <polygon class="cls-24" points="546 1403 903 1340 601 1182 546 1403"/>
    <polygon class="Graphic-Style-77" points="1189 1023 1710 1052 1431.6 789.3 1189 1023"/>
    <polygon class="Graphic-Style-77" points="1681 723 1710 1052 1431.6 789.3 1681 723"/>
    <polygon class="Graphic-Style-77" points="1935 831 1681 723 1710 1052 1935 831"/>
    <polygon class="Graphic-Style-77" points="1935 1317 1710 1052 1935 831 1935 1317"/>
    <line class="cls-25" x1="1612" y1="116" x2="1390.1" y2="-65.1"/>
    <polygon class="Graphic-Style-9" points="1882 254 1612 116 1613.8 473.7 1882 254"/>
    <polygon class="cls-26" points="1878 -93 1612 116 1390.1 -65.1 1878 -93"/>
    <polygon class="cls-27" points="1792 69 1882 254 1612 116 1792 69"/>
    <polygon class="cls-28" points="1878 -93 1792 69 1612 116 1878 -93"/>
    <polygon class="cls-29" points="2058 122 1792 69 1878 -93 2152 -54 2058 122"/>
    <polygon class="cls-30" points="1882 254 2058 122 1792 69 1882 254"/>
    <polygon class="Graphic-Style-77" points="1390.1 -65.1 1612 116 1613.8 473.7 1390.1 -65.1"/>
    <polygon class="Graphic-Style-10" points="1841 547 1613.8 473.7 1882 254 1841 547"/>
    <polygon class="Graphic-Style-9" points="1431.6 789.3 1841 547 1613.8 473.7 1431.6 789.3"/>
    <polygon class="Graphic-Style-10" points="1681 723 1841 547 1431.6 789.3 1681 723"/>
    <polygon class="Graphic-Style-77" points="1935 831 1841 547 1681 723 1935 831"/>
    <polygon class="Graphic-Style-77" points="2069 599 1841 547 1935 831 2069 599"/>
    <polygon class="Graphic-Style-77" points="1882 254 2069 599 1841 547 1882 254"/>
    <polygon class="Graphic-Style-77" points="2058 122 2069 599 1882 254 2058 122"/>
    <polygon class="Graphic-Style-77" points="1385 1329 1189 1023 1710 1052 1385 1329"/>
    <polygon class="Graphic-Style-5" points="1935 1317 1385 1329 1710 1052 1935 1317"/>
    <polygon class="cls-31" points="903 1340 1385 1329 1189 1023 903 1340"/>
    <polygon class="Graphic-Style-77" points="2175 1091 1935 831 2069 599 2175 1091"/>
    <polygon class="Graphic-Style-77" points="1935 1317 2175 1091 1935 831 1935 1317"/>
  </g>
</svg>
