<svg xmlns="http://www.w3.org/2000/svg"><defs><clipPath id="svg-sfx-a"><path fill="none" d="M0-411h1600v400H0z"/></clipPath><linearGradient id="svg-sfx-b" x1="715.04" y1="179.86" x2="936.88" y2="-519.51" gradientUnits="userSpaceOnUse"><stop offset="0" stop-color="#fff" stop-opacity=".2"/><stop offset="1" stop-color="#fff" stop-opacity="0"/></linearGradient><linearGradient id="svg-sfx-c" y1="24" x2="48" y2="24" gradientUnits="userSpaceOnUse"><stop offset="0" stop-color="#3a65c7"/><stop offset="1" stop-color="#3fa9f5"/></linearGradient><clipPath id="svg-sfx-a"><path fill="none" d="M0-.5h1600v400H0z"/></clipPath><linearGradient id="svg-sfx-b" x1="715.04" y1="590.36" x2="936.88" y2="-109.01" gradientUnits="userSpaceOnUse"><stop offset="0" stop-color="#fff" stop-opacity=".2"/><stop offset="1" stop-color="#fff" stop-opacity="0"/></linearGradient><linearGradient id="svg-sfx-c" x1="-59" y1="166.21" x2="1645" y2="166.21" gradientUnits="userSpaceOnUse"><stop offset="0" stop-color="#3fa9f5" stop-opacity=".1"/><stop offset="1" stop-color="#3fa9f5" stop-opacity=".1"/></linearGradient><clipPath id="svg-sfx-a"><path fill="none" d="M0-.5h1600v400H0z"/></clipPath><linearGradient id="svg-sfx-b" x1="715.04" y1="590.36" x2="936.88" y2="-109.01" gradientUnits="userSpaceOnUse"><stop offset="0" stop-color="#fff" stop-opacity=".2"/><stop offset="1" stop-color="#fff" stop-opacity="0"/></linearGradient><linearGradient id="svg-sfx-c" x1="753.08" y1="335.8" x2="853.58" y2="-102.18" gradientUnits="userSpaceOnUse"><stop offset="0" stop-color="#4d7a2a" stop-opacity=".3"/><stop offset="1" stop-color="#4d7a2a" stop-opacity=".1"/></linearGradient></defs><symbol id="svg-sfx-circle-blue-1" viewBox="0 0 48 48"><title>ayyyy</title><g clip-path="url(#svg-sfx-a)"><path d="M-125.83-356.63a149 149 0 0 1 187.47 46.16l36.29 50.38a112 112 0 0 0 121.82 42.2 388.26 388.26 0 0 1 327.55 53.57 97.43 97.43 0 0 0 106 3l75.53-46c117.72-71.76 271.17-36.83 346.23 78.81a97.43 97.43 0 0 0 105.62 41.4A380.23 380.23 0 0 1 1426.16-67a327.94 327.94 0 0 0 174.61 24.54l113.77-15.17a97.43 97.43 0 0 1 92.25 40.08c45.45 63.86.72 152.53-77.66 153.91l-1131.81 20a97.43 97.43 0 0 1-14.56-.84l-777.1-103.38c-64.36-8.56-102.5-76.48-76.3-135.89l99.24-225.05a97.43 97.43 0 0 1 45.57-47.83z" fill="url(#svg-sfx-b)"/></g><circle cx="24" cy="24" r="22" fill="none" stroke-miterlimit="10" stroke-width="4" stroke="url(#svg-sfx-c)"/></symbol><symbol id="svg-sfx-test-grad-swoosh-old" viewBox="0 0 1600 400" preserveAspectRatio="xMidYMid"><title>awk</title><g clip-path="url(#svg-sfx-a)"><path d="M-125.83 53.87A149 149 0 0 1 61.64 100l36.29 50.38a112 112 0 0 0 121.82 42.2 388.26 388.26 0 0 1 327.55 53.6 97.43 97.43 0 0 0 106 3l75.53-46c117.72-71.76 271.17-36.83 346.23 78.81a97.43 97.43 0 0 0 105.62 41.4 380.23 380.23 0 0 1 245.46 20.17A327.94 327.94 0 0 0 1600.76 368l113.77-15.17a97.43 97.43 0 0 1 92.26 40.17c45.45 63.86.72 152.53-77.66 153.91l-1131.81 20a97.43 97.43 0 0 1-14.56-.84l-777.1-103.35c-64.36-8.56-102.5-76.48-76.3-135.89l99.24-225.13a97.43 97.43 0 0 1 45.57-47.83z" fill="url(#svg-sfx-b)"/></g><g clip-path="url(#svg-sfx-a)"><path d="M61.64 100l36.29 50.38a112 112 0 0 0 121.82 42.2 388.26 388.26 0 0 1 327.55 53.6 97.43 97.43 0 0 0 106 3l75.53-46c117.72-71.76 271.17-36.83 346.23 78.81a97.43 97.43 0 0 0 105.62 41.4 380.23 380.23 0 0 1 245.46 20.17A327.94 327.94 0 0 0 1600.76 368l44.24-5.9V-38.5H-59v76.64A148.91 148.91 0 0 1 61.64 100z" fill="url(#svg-sfx-c)"/></g></symbol><symbol id="svg-sfx-test-grad-swoosh" viewBox="0 0 1600 400"><title>Untitled-1</title><g clip-path="url(#svg-sfx-a)"><path d="M-125.83 53.87A149 149 0 0 1 61.64 100l36.29 50.38a112 112 0 0 0 121.82 42.2 388.26 388.26 0 0 1 327.55 53.6 97.43 97.43 0 0 0 106 3l75.53-46c117.72-71.76 271.17-36.83 346.23 78.81a97.43 97.43 0 0 0 105.62 41.4 380.23 380.23 0 0 1 245.46 20.17A327.94 327.94 0 0 0 1600.76 368l113.77-15.17a97.43 97.43 0 0 1 92.26 40.17c45.45 63.86.72 152.53-77.66 153.91l-1131.81 20a97.43 97.43 0 0 1-14.56-.84l-777.1-103.35c-64.36-8.56-102.5-76.48-76.3-135.89l99.24-225.13a97.43 97.43 0 0 1 45.57-47.83z" fill="url(#svg-sfx-b)"/></g><g clip-path="url(#svg-sfx-a)"><path d="M61.64 100l36.29 50.38a112 112 0 0 0 121.82 42.2 388.26 388.26 0 0 1 327.55 53.6 97.43 97.43 0 0 0 106 3l75.53-46c117.72-71.76 271.17-36.83 346.23 78.81a97.43 97.43 0 0 0 105.62 41.4 380.23 380.23 0 0 1 245.46 20.17A327.94 327.94 0 0 0 1600.76 368l44.24-5.9V-38.5H-59v76.64A148.91 148.91 0 0 1 61.64 100z" fill="url(#svg-sfx-c)"/></g></symbol></svg>