<svg xmlns="http://www.w3.org/2000/svg"><defs><clipPath id="svg-icon-a"><path d="M19.33 16A3.33 3.33 0 1 1 16 12.67 3.33 3.33 0 0 1 19.33 16zm4.81-4c0 1.05.06 1.37.06 4s0 3-.06 4a5.53 5.53 0 0 1-.34 1.86 3.31 3.31 0 0 1-1.9 1.9 5.53 5.53 0 0 1-1.86.34c-1.05 0-1.37.06-4 .06s-3 0-4-.06a5.53 5.53 0 0 1-1.86-.34 3.31 3.31 0 0 1-1.9-1.9A5.53 5.53 0 0 1 7.86 20c0-1.05-.06-1.37-.06-4s0-3 .06-4a5.53 5.53 0 0 1 .34-1.9 3.31 3.31 0 0 1 1.9-1.9 5.53 5.53 0 0 1 1.9-.34c1.05 0 1.37-.06 4-.06s3 0 4 .06a5.53 5.53 0 0 1 1.86.34 3.31 3.31 0 0 1 1.9 1.9 5.53 5.53 0 0 1 .38 1.9zm-3 4A5.14 5.14 0 1 0 16 21.14 5.14 5.14 0 0 0 21.14 16zm1.4-5.34a1.2 1.2 0 1 0-1.2 1.2 1.2 1.2 0 0 0 1.2-1.2zM32 16A16 16 0 1 1 16 0a16 16 0 0 1 16 16zm-6 0c0-2.72 0-3.06-.06-4.12a7.34 7.34 0 0 0-.46-2.43 5.11 5.11 0 0 0-2.92-2.92 7.34 7.34 0 0 0-2.43-.46C19.06 6 18.72 6 16 6s-3.06 0-4.12.06a7.34 7.34 0 0 0-2.43.46 5.11 5.11 0 0 0-2.93 2.93 7.34 7.34 0 0 0-.46 2.43C6 12.94 6 13.28 6 16s0 3.06.06 4.12a7.34 7.34 0 0 0 .46 2.43 5.11 5.11 0 0 0 2.92 2.92 7.34 7.34 0 0 0 2.43.46c1.07 0 1.41.06 4.12.06s3.06 0 4.12-.06a7.34 7.34 0 0 0 2.43-.46 5.11 5.11 0 0 0 2.92-2.92 7.34 7.34 0 0 0 .46-2.43c.08-1.06.08-1.4.08-4.12z" fill="none"/></clipPath><radialGradient id="svg-icon-b" cx="12.08" cy="31.17" r="32.04" gradientUnits="userSpaceOnUse"><stop offset="0" stop-color="#ffd87e"/><stop offset=".32" stop-color="#f66934"/><stop offset=".7" stop-color="#bc3099"/><stop offset="1" stop-color="#515bd1"/></radialGradient><style>.cls-1,.cls-4{fill:#efaf1e}.cls-2{fill:#7ac943}.cls-3{fill:#3fa9f5}.cls-4,.cls-5{fill-rule:evenodd}.cls-5{fill:#fff}</style></defs><symbol id="svg-icon-24-blog" viewBox="0 0 24 24"><title>pmk-website__app-icons</title><path fill="none" stroke="currentColor" stroke-linecap="round" stroke-linejoin="round" d="M5.5 5.5h13v14h-13zM5.5 9.5h13M8.5 12.5h7M8.5 15.5h7"/></symbol><symbol id="svg-icon-24-downcaret" viewBox="0 0 24 24"><title>pmk-website__app-icons</title><path fill="none" stroke="currentColor" stroke-linecap="round" stroke-linejoin="round" d="M7 9.5l5 5 5-5"/></symbol><symbol id="svg-icon-24-leftcaret" viewBox="0 0 24 24"><title>pmk-website__app-icons</title><path fill="none" stroke="currentColor" stroke-linecap="round" stroke-linejoin="round" d="M14.5 6.5l-5 5 5 5"/></symbol><symbol id="svg-icon-24-rightcaret" viewBox="0 0 24 24"><title>pmk-website__app-icons</title><path fill="none" stroke="currentColor" stroke-linecap="round" stroke-linejoin="round" d="M9.5 16.5l5-5-5-5"/></symbol><symbol id="svg-icon-24-search-icon" viewBox="0 0 24 24"><title>pmk-website__app-icons</title><circle cx="14" cy="10" r="6.5" fill="none" stroke="currentColor" stroke-linecap="round" stroke-linejoin="round"/><circle cx="14" cy="10" r="6.5" fill="none" stroke="currentColor" stroke-linecap="round" stroke-linejoin="round"/><path fill="none" stroke="currentColor" stroke-linecap="round" stroke-linejoin="round" d="M9.4 14.6l-4.9 4.9"/></symbol><symbol id="svg-icon-24-sign-in" viewBox="0 0 24 24"><title>pmk-website__app-icons</title><circle cx="12" cy="10" r="4.5" fill="none" stroke="currentColor" stroke-linecap="round" stroke-linejoin="round"/><path d="M19.5 19.5a7.5 7.5 0 0 0-4-6.65M8.52 12.85a7.5 7.5 0 0 0-4 6.65" fill="none" stroke="currentColor" stroke-linecap="round" stroke-linejoin="round"/><circle cx="12" cy="10" r="4.5" fill="none" stroke="currentColor" stroke-linecap="round" stroke-linejoin="round"/></symbol><symbol id="svg-icon-24-upcaret" viewBox="0 0 24 24"><title>pmk-website__app-icons</title><path fill="none" stroke="currentColor" stroke-linecap="round" stroke-linejoin="round" d="M17 14.5l-5-5-5 5"/></symbol><symbol id="svg-icon-32-contact" viewBox="0 0 32 32"><title>pmk-website__app-icons</title><path fill="none" stroke="currentColor" stroke-linecap="round" stroke-linejoin="round" d="M7.5 9.5h18v13h-18z"/><path fill="none" stroke="currentColor" stroke-linecap="round" stroke-linejoin="round" d="M16.5 16.5l9-7h-18l9 7"/></symbol><symbol id="svg-icon-32-dcaret" viewBox="0 0 32 32"><title>pmk-website__app-icons</title><path fill="none" stroke="currentColor" stroke-linecap="round" stroke-linejoin="round" d="M24.5 11.5l-8 8-8-8"/></symbol><symbol id="svg-icon-32-facebook-mono" viewBox="0 0 32 32"><title>pmk-website__app-icons</title><path d="M20 16.63h-2.83v10.46h-4.33V16.63h-2.06V13h2.06v-2.43a4.06 4.06 0 0 1 4.36-4.36h3.2v3.58h-2.32a.88.88 0 0 0-.92 1V13h3.24zm0 0" fill="currentColor"/></symbol><symbol id="svg-icon-32-facebook" viewBox="0 0 32 32"><title>pmk-website__app-icons</title><path d="M32 16A16 16 0 1 1 16 0a16 16 0 0 1 16 16zm0 0" fill="#3b5998"/><path d="M20 16.63h-2.83v10.46h-4.33V16.63h-2.06V13h2.06v-2.43a4.06 4.06 0 0 1 4.36-4.36h3.2v3.58h-2.32a.88.88 0 0 0-.92 1V13h3.24zm0 0" fill="#fff"/></symbol><symbol id="svg-icon-32-gplus" viewBox="0 0 32 32"><title>pmk-website__app-icons</title><path d="M32 16A16 16 0 1 1 16 0a16 16 0 0 1 16 16zm0 0" fill="#ee4134"/><path d="M13.56 14.81v2.38h3.24a3 3 0 0 1-3.24 2.38 3.57 3.57 0 0 1 0-7.13 3.39 3.39 0 0 1 2.33.88c.49-.49.45-.56 1.71-1.75a6 6 0 1 0-4 10.44c4.95 0 6.15-4.31 5.75-7.19h-5.79zM24.36 14.93v-2.08h-1.49v2.08h-2.13v1.48h2.13v2.14h1.49v-2.14h2.07v-1.48h-2.07z" fill="#fff"/></symbol><symbol id="svg-icon-32-instagram" viewBox="0 0 32 32"><title>pmk-website__app-icons</title><g clip-path="url(#svg-icon-a)"><path fill="url(#svg-icon-b)" d="M0 0h32v32H0z"/></g></symbol><symbol id="svg-icon-32-larrow" viewBox="0 0 32 32"><title>pmk-website__app-icons</title><path fill="none" stroke="currentColor" stroke-linecap="round" stroke-linejoin="round" d="M11.5 20.5l-4-4 4-4M23.5 16.5H8"/></symbol><symbol id="svg-icon-32-linkedin" viewBox="0 0 32 32"><title>pmk-website__app-icons</title><path d="M32 16A16 16 0 1 1 16 0a16 16 0 0 1 16 16zm0 0" fill="#006998"/><path d="M9.13 12.2h3.35V23H9.13zm1.67-5.35a1.94 1.94 0 1 1-1.93 1.94 1.94 1.94 0 0 1 1.94-1.94M14.58 12.2h3.2v1.47A3.51 3.51 0 0 1 21 11.94c3.38 0 4 2.23 4 5.13V23h-3.34v-5.27c0-1.25 0-2.85-1.74-2.85s-2 1.36-2 2.76V23h-3.34z" fill="#fff"/></symbol><symbol id="svg-icon-32-play" viewBox="0 0 32 32"><title>pmk-website-icons</title><circle cx="16" cy="16" r="10" fill="none" stroke="currentColor" stroke-linecap="round" stroke-linejoin="round" stroke-width="2"/><path fill="currentColor" stroke="currentColor" stroke-linecap="round" stroke-linejoin="round" stroke-width="2" d="M15 12v8l4-4-4-4"/></symbol><symbol id="svg-icon-32-rarrow" viewBox="0 0 32 32"><title>pmk-website-icons</title><path fill="none" stroke="currentColor" stroke-linecap="round" stroke-linejoin="round" stroke-width="2" d="M21 20l4-4-4-4 4 4H7"/></symbol><symbol id="svg-icon-32-twitter-mono" viewBox="0 0 32 32"><title>pmk-website__app-icons</title><path d="M25.8 11.5a7.64 7.64 0 0 1-2.2.6 3.85 3.85 0 0 0 1.69-2.1 7.69 7.69 0 0 1-2.43.93 3.83 3.83 0 0 0-6.52 3.49 10.86 10.86 0 0 1-7.88-4 3.83 3.83 0 0 0 1.18 5.11A3.8 3.8 0 0 1 7.91 15 3.83 3.83 0 0 0 11 18.83a3.82 3.82 0 0 1-1.73.07 3.83 3.83 0 0 0 3.57 2.66 7.74 7.74 0 0 1-5.66 1.58A10.88 10.88 0 0 0 23.9 14v-.49a7.76 7.76 0 0 0 1.91-2zm0 0" fill="currentColor"/></symbol><symbol id="svg-icon-32-twitter" viewBox="0 0 32 32"><title>pmk-website__app-icons</title><path d="M32 16A16 16 0 1 1 16 0a16 16 0 0 1 16 16zm0 0" fill="#55acee"/><path d="M25.8 11.5a7.64 7.64 0 0 1-2.2.6 3.85 3.85 0 0 0 1.69-2.1 7.69 7.69 0 0 1-2.43.93 3.83 3.83 0 0 0-6.52 3.49 10.86 10.86 0 0 1-7.88-4 3.83 3.83 0 0 0 1.18 5.11A3.8 3.8 0 0 1 7.91 15 3.83 3.83 0 0 0 11 18.83a3.82 3.82 0 0 1-1.73.07 3.83 3.83 0 0 0 3.57 2.66 7.74 7.74 0 0 1-5.66 1.58A10.88 10.88 0 0 0 23.9 14v-.49a7.76 7.76 0 0 0 1.91-2zm0 0" fill="#f1f2f2"/></symbol><symbol id="svg-icon-40-lquote" viewBox="0 0 40 40"><title>pmk-website__app-icons</title><path d="M18 13.46l.21.47a.53.53 0 0 1-.31.84 5.92 5.92 0 0 0-3.4 5.59 7.88 7.88 0 0 1 .94-.21 2.41 2.41 0 0 1 2.56 2.4 2.71 2.71 0 0 1-3 2.77c-2.51 0-3.14-2.56-3.14-4a8.66 8.66 0 0 1 5.33-8.16.58.58 0 0 1 .81.3zm9.51 0l.26.47a.57.57 0 0 1-.37.84 5.78 5.78 0 0 0-3.35 5.59 5.52 5.52 0 0 1 .89-.21 2.38 2.38 0 0 1 2.56 2.4 2.71 2.71 0 0 1-3 2.77c-2.51 0-3.14-2.56-3.14-4a8.66 8.66 0 0 1 5.33-8.16c.4-.16.66-.07.82.3z" fill="currentColor"/></symbol><symbol id="svg-icon-40-rquote" viewBox="0 0 40 40"><title>pmk-website__app-icons</title><path d="M21.67 24.94l-.21-.47a.53.53 0 0 1 .31-.84 5.92 5.92 0 0 0 3.4-5.63 7.88 7.88 0 0 1-.94.21 2.41 2.41 0 0 1-2.56-2.4 2.71 2.71 0 0 1 3-2.77c2.51 0 3.14 2.56 3.14 4a8.66 8.66 0 0 1-5.33 8.16.58.58 0 0 1-.81-.26zm-9.51 0l-.26-.47a.57.57 0 0 1 .37-.84A5.78 5.78 0 0 0 15.6 18a5.52 5.52 0 0 1-.89.21 2.38 2.38 0 0 1-2.56-2.4 2.71 2.71 0 0 1 3-2.77c2.51 0 3.14 2.56 3.14 4A8.66 8.66 0 0 1 13 25.25c-.43.16-.69.05-.85-.31z" fill="currentColor"/></symbol><symbol id="svg-icon-40-search" viewBox="0 0 40 40"><title>pmk-website__app-icons</title><circle cx="18.5" cy="19.5" r="8" fill="none" stroke="currentColor" stroke-linecap="round" stroke-linejoin="round"/><path fill="none" stroke="currentColor" stroke-linecap="round" stroke-linejoin="round" d="M28.5 29.5l-4.34-4.34"/></symbol><symbol id="svg-icon-logo" viewBox="0 0 144 72"><title>pmk-website__app-icons</title><path class="cls-1" d="M39 65.9c-2.5 0-3.5-1.2-3.5-3.4v-7.1c0-3.1-1.4-4.4-3.4-4.4S29 52.3 29 54.9v11h-1.3a3.1 3.1 0 0 1-3.4-3.4v-7.1c0-3.1-1.4-4.4-3.4-4.4s-3.1 1.4-3.1 4v10.9h-1.2a3.2 3.2 0 0 1-3.3-3.4v-7.1c0-5.1 2.6-8.4 8.2-8.4a6.8 6.8 0 0 1 5.6 2.9 6.3 6.3 0 0 1 5.3-2.9c4.3 0 7.7 2.6 7.7 7.8v11.1zM46.6 71.9a3 3 0 0 1-3.2-2.9v-.9L46 68c1.7-.1 2.3-.8 3.3-3.4-2.4-3.7-5.9-12.9-6.6-17.2h2.4a2.7 2.7 0 0 1 2.7 2.2 39.9 39.9 0 0 0 3.7 10.7 52.2 52.2 0 0 0 3.6-12.8h2c1.5 0 2.2.7 2.2 2.2s-3.2 10.4-4.1 12.4c-3.4 7.9-5.2 9.8-8.6 9.8z"/><path class="cls-2" d="M74.5 44.2v11.1a56 56 0 0 1 5.7-6.7 4.8 4.8 0 0 1 3.7-1.2h2.6v.2A97.7 97.7 0 0 0 79 56c1.5 1.8 2.9 3.7 4.6 5.4a7.8 7.8 0 0 0 3.6 2.4A2.8 2.8 0 0 1 84 66a4.5 4.5 0 0 1-3-1.3 79 79 0 0 1-6.5-7.9v9H73c-2.1 0-3.2-1.1-3.2-3.3V41.2h1.5c2.3 0 3.2 1.2 3.2 3zM92.2 46.1a2.7 2.7 0 0 1-2.7-2.7 2.7 2.7 0 0 1 2.7-2.7 2.7 2.7 0 0 1 2.7 2.7 2.7 2.7 0 0 1-2.7 2.7zm3.3 20c-3.6 0-5.5-2-5.5-5.8V47.8h1.3c2.1 0 3.3 1.1 3.3 3.4v8.7c0 1.9.8 2.4 2.8 2.4h.9v1c-.1 2-.9 2.8-2.8 2.8zM108.5 66.3c-4.9 0-8.6-4.3-8.6-9.3s3-10 8.3-10a5.4 5.4 0 0 1 4.6 2.9v-8.7h1.4a2.8 2.8 0 0 1 3.2 3.1v13.1c0 5.4-2.5 8.9-8.9 8.9zm-.2-15.5c-2.3 0-3.8 2.3-3.8 5.3s2 6.4 4.6 6.4 3.7-1.9 3.7-5.3-2-6.4-4.5-6.4z"/><path class="cls-3" d="M16 40.2a6.8 6.8 0 0 1-5.9-3.5v28.9H8.3a4 4 0 0 1-4.1-4V28.9c0-7.8 3.5-13.1 11.7-13.1 6.2 0 10.6 5.6 10.6 11.5 0 7.5-3.7 12.9-10.5 12.9zm-1-19.3c-3.2 0-5 2.8-5 6.8s2.3 7.3 5.8 7.3 4.8-2.5 4.8-6.2c-.1-5.5-1.9-7.9-5.6-7.9zM34.7 14.6a3.4 3.4 0 0 1-3.4-3.4 3.4 3.4 0 0 1 3.4-3.4 3.4 3.4 0 0 1 3.4 3.4 3.5 3.5 0 0 1-3.4 3.4zm4.1 25.3c-4.5 0-7-2.6-7-7.3V16.7h1.6c2.6 0 4.2 1.4 4.2 4.3v11c0 2.3 1 3.1 3.6 3.1h1.1v1.3c0 2.5-1 3.5-3.5 3.5zM51.6 12.3v14a70.7 70.7 0 0 1 7.2-8.5 6 6 0 0 1 4.6-1.5h3.3v.2a123.3 123.3 0 0 0-9.5 10.6c1.9 2.3 3.7 4.7 5.8 6.8s3.1 2.6 4.5 3a3.6 3.6 0 0 1-3.9 2.9 5.7 5.7 0 0 1-3.8-1.6 99.8 99.8 0 0 1-8.2-10v11.4h-1.8c-2.7 0-4-1.4-4-4.1V8.4h1.9c2.7 0 3.9 1.6 3.9 3.9z"/><path class="cls-4" d="M115.8 15.1c-1.7-6.4-5.9-10.2-12.5-10.9-4.4-.5-8.9-.3-13.3-.4a3.3 3.3 0 0 0-1.6.3 40.7 40.7 0 0 0-5.1.1h-1.6c-1.8 0-4.4.1-6.1 1.2l-1 .7-.6.6a9.7 9.7 0 0 0-1.9 2.1 23 23 0 0 0-2.7 20.8 13.4 13.4 0 0 0 9 8.8 30.1 30.1 0 0 0 11.5 1.2 52.5 52.5 0 0 0 7.4 0h.1a16.5 16.5 0 0 0 3.1-.1 34.1 34.1 0 0 0 8-1h.5a9.5 9.5 0 0 0 6.4-6.5 28.5 28.5 0 0 0 .4-16.9z"/><path class="cls-5" d="M85.5 32.7l7.7 6.6 9.6-8.1 2.7-4.4.9-2.9-1.1-2.3-2.3-1h-3.6l-3.5-1.7-3.4-.8H90l-2.1.9-2.2 1.1-2.5.9-3.2.4-.8 1.7v2.4l1.3 1.8 3.9 2.8 1.1 2.6z"/><path class="cls-4" d="M98.2 30.4l-2.4-.2h-1l-.3.2.3.3.6.2a4.1 4.1 0 0 0-2.6.7c-.8.4-1.5 1.1-2.3 1.6l.7-.7 1.3-1.1c.2-.2.5-.6.2-.9s-.7-.2-1 0l-1.7 1-.8.3h-.1l.7-.8a1.3 1.3 0 0 0 .3-1.3c-.2-.4-.4-.4-.7-.1l-.6.7-3.7-3.6-.6-.6a1.2 1.2 0 0 1-.5-1 6.8 6.8 0 0 0-.3-1.3V23l-.4.2a6.3 6.3 0 0 0-.3.9l-.7-1.1-.2-.3-.5-.2a1.6 1.6 0 0 0 0 .6c.2.4.4.7.5 1.1l-1.2-.7h-.5c.1.2.1.4.2.5l.9.8-1.1-.2h-.5c.1.1.2.3.3.4l1.3.6h-1.1l-.4.4.3.3 1.9.2a2.2 2.2 0 0 1 1.5.8l3.5 3.9a2.8 2.8 0 0 0-1.4 1.8c-1-.9-7.8-7.8-9.7-10.7a17.1 17.1 0 0 1-2.7-6.3 8.1 8.1 0 0 1 4.1-8.8 11.5 11.5 0 0 1 6.8-1.5 9.5 9.5 0 0 1 5.4 2 14.7 14.7 0 0 1 3.2 3.8l.3.5.3-.5a36.2 36.2 0 0 1 2.6-3.3c2.1-2.2 4.9-2.7 7.8-2.5a10.5 10.5 0 0 1 5.5 1.8 7.9 7.9 0 0 1 3.8 7.3 14.7 14.7 0 0 1-2.2 6.5 43.5 43.5 0 0 1-7.3 8.9l-1 1.1-2.2-1.8 1.2-2.6a2.3 2.3 0 0 1 1.3-1.2l1.5-.6.4-.4h-.6l-.8.3 1.1-1.1c.1-.1.1-.2.1-.3h-.4l-1.1.5.6-1c.1-.1 0-.4 0-.5l-.5.2-1.1 1.1c.1-.5.2-.9.3-1.3a1.5 1.5 0 0 0-.2-.5c-.2.1-.4.2-.4.4s-.4 1-.5 1.5l-.5-.8-.4-.2c0 .1-.1.3 0 .4a6.5 6.5 0 0 1 .2 1.4 2.6 2.6 0 0 1-.6 2.1l-1.3 2.2a.5.5 0 0 1-.7.3l-.7-.2H97c0 .2 0 .4.1.5l.9.7.3.2zm-9.7-10.5h-.1c-.3.5-.6 1-.8 1.5a2.2 2.2 0 0 1-1 1.3l-.4.3a1.5 1.5 0 0 0 2 .2 3.4 3.4 0 0 0 1-1.4 1.3 1.3 0 0 1 2.3-.5h-.2a4 4 0 0 0-2 2.7c0 .1 0 .4.1.4l1.8.8a1.5 1.5 0 0 0 1.8-.4l.7-1a2.1 2.1 0 0 1-3 1.5l-1.4-.3c-.4-.1-.7 0-.7.4a1.1 1.1 0 0 0 .2.9 2.4 2.4 0 0 1 .7 1.2l.5.9a3.6 3.6 0 0 0 3.9 1.6 3.8 3.8 0 0 0 2.7-3 1.6 1.6 0 0 1 .4-.7.8.8 0 0 0-.2-1.5l-.2-.3a4.8 4.8 0 0 0-1.4-2.4 3.4 3.4 0 0 0-2-.9h-.9c-.2-1.1-.5-2.1-1.8-2.3a1.8 1.8 0 0 0-2 1zm8.4-8.7h-.1a3.5 3.5 0 0 0-3.2 5.4 1.3 1.3 0 0 1 .1.5 5.7 5.7 0 0 0 2.5 4.6 4.2 4.2 0 0 0 5.1-.4 6.9 6.9 0 0 0 2-4.8c.1-.8-.4-1.1-1.1-.7l-1.4.9a2.9 2.9 0 0 1-1.2.4 3.1 3.1 0 0 1-2.4-1.3l.7.5c1.3.9 2.2.9 3.3-.1l1.1-.6a.8.8 0 0 1 1.2.9 11.9 11.9 0 0 1-.3 1.4 1.2 1.2 0 0 0 0 .5 4.7 4.7 0 0 0 4.8 2.8 3.6 3.6 0 0 0 2.1-1.3c-1.6 0-2.1-.4-2.6-1.8a2.7 2.7 0 0 1-.2-.6l-.3-3.6a11.1 11.1 0 0 0-.6-3.6 5.3 5.3 0 0 0-5.7-3.4 4.4 4.4 0 0 0-3.6 3.1c-.1.4-.1.8-.2 1.2zM82.3 9.9A2.5 2.5 0 0 0 79 12a4.2 4.2 0 0 0 .9 3.2c.2.3.5.7.8.7s.5-.5.7-.7v.4c-.3.7-.7.8-1.2.2l-.6-1c-.2-.4-.5-.4-.8-.1a.9.9 0 0 0-.3.7 10.3 10.3 0 0 0 .6 1.5l.4.9.2.7a4.8 4.8 0 0 0 7.6 2.3 6.4 6.4 0 0 0 2.1-2.8 4.7 4.7 0 0 1-2.6-2.1L84.3 12l1 1.2.9 1.5a7.2 7.2 0 0 0 2.4 2.7c.7.4 1 .3 1.4-.3a5.9 5.9 0 0 0-2.8-8.2c-1.9-.8-3.9-.6-4.9 1z"/><path class="cls-4" d="M95 33.4c1.1.8 2.5.8 3.8 1.1l-.4.4-4.8 4.1c-.3.2-.5.2-.7 0l-1.4-1 2-1.7a1.8 1.8 0 0 0 .5-.6 2.5 2.5 0 0 0 .1-.7h-.6l-.6.3.9-1.1c.4-.5.5-1 .2-1.2s-.7.1-1 .3l-.6.4 1.8-2.1 3 .7-1.7-.3h-.9l-.3.2.2.3 1.3.4 1.6.4a6.9 6.9 0 0 0-2.4.1z"/><path class="cls-5" d="M96.9 11.2c.1-.4.1-.8.2-1.2a4.4 4.4 0 0 1 3.7-3.2 5.3 5.3 0 0 1 5.7 3.4 11.1 11.1 0 0 1 .6 3.6l.3 3.6a2.7 2.7 0 0 0 .2.6c.5 1.4 1 1.8 2.6 1.8a3.6 3.6 0 0 1-2.1 1.3 4.7 4.7 0 0 1-4.8-2.8 1.2 1.2 0 0 1 0-.5 11.9 11.9 0 0 0 .3-1.4.8.8 0 0 0-1.2-.9l-1.1.6c-1.1.9-2 .9-3.3.1l-.7-.5a3.1 3.1 0 0 0 2.3 1.3 2.9 2.9 0 0 0 1.2-.4l1.4-.9c.7-.4 1.2-.1 1.1.7a6.9 6.9 0 0 1-2 4.8 4.2 4.2 0 0 1-5.1.4 5.7 5.7 0 0 1-2.5-4.6 1.3 1.3 0 0 0-.1-.5 3.5 3.5 0 0 1 3.2-5.4zm.4-.3c.9-2 2.2-3.1 3.8-3.2s4.2 1 5.3 3.1a.7.7 0 0 0 0-.2c-.9-2.3-2.7-4-5.7-3.5a3.9 3.9 0 0 0-3.4 3.8zm-3.6 5.3a7.2 7.2 0 0 1 1-2.9 3 3 0 0 0-1 2.9zM82.3 9.9c1-1.6 3-1.8 4.8-1.1a5.9 5.9 0 0 1 2.8 8.2c-.4.7-.7.7-1.4.3a7.2 7.2 0 0 1-2.4-2.7l-.9-1.5-1-1.2 2.4 3.9a4.7 4.7 0 0 0 2.6 2.1 6.4 6.4 0 0 1-2.1 2.8 4.8 4.8 0 0 1-7.6-2.3l-.2-.7-.4-.9a10.3 10.3 0 0 1-.6-1.5.9.9 0 0 1 .3-.7c.3-.2.5-.3.8.1l.6 1c.5.6.9.5 1.2-.2v-.4c-.2.2-.4.7-.7.7s-.6-.4-.8-.7A4.2 4.2 0 0 1 79 12a2.5 2.5 0 0 1 3.3-2.1zm.5-.3a5.1 5.1 0 0 1 5.8.6c-1.3-1.6-4.6-1.9-5.8-.6zM88.5 19.9a1.8 1.8 0 0 1 2-1c1.3.2 1.5 1.2 1.8 2.3h.9a3.4 3.4 0 0 1 2 .9 4.8 4.8 0 0 1 1.4 2.4l.2.3a.8.8 0 0 1 .2 1.5 1.6 1.6 0 0 0-.4.7 3.8 3.8 0 0 1-2.7 3 3.6 3.6 0 0 1-3.9-1.7l-.5-.9a2.4 2.4 0 0 0-.7-1.2 1.1 1.1 0 0 1-.2-.9c0-.4.4-.5.7-.4l1.4.6a2.1 2.1 0 0 0 3-1.5l-.7 1a1.5 1.5 0 0 1-1.8.4l-1.8-.8c-.1 0-.1-.3-.1-.4a4 4 0 0 1 2-2.7h.2a1.3 1.3 0 0 0-2.3.5 3.4 3.4 0 0 1-1 1.4 1.5 1.5 0 0 1-2-.2l.4-.3a2.2 2.2 0 0 0 1-1.3c.2-.5.5-1 .8-1.5h.3a2.2 2.2 0 0 1 2.8.7l.3.3c-.1-1.1-.7-1.8-1.6-1.9a2.2 2.2 0 0 0-1.7.7z"/><path class="cls-4" d="M88.5 19.9a2.2 2.2 0 0 1 1.7-.8c.9.1 1.5.8 1.6 1.9l-.3-.3a2.2 2.2 0 0 0-2.8-.7h-.2zM97.3 10.9a3.9 3.9 0 0 1 3.4-3.7c3-.6 4.8 1.1 5.7 3.5a.7.7 0 0 1 0 .2c-1.2-2.1-2.8-3.3-5.3-3.1s-2.9 1.1-3.8 3.1zM93.7 16.2a3 3 0 0 1 1.1-2.9 7.2 7.2 0 0 0-1 2.9zM82.8 9.6c1.2-1.4 4.4-1 5.8.6a5.1 5.1 0 0 0-5.8-.6zM89.4 4.2l-4.6.8M89.6 3.8c-3.4.2-6.7 1.1-10.1 1.5"/><g><path class="cls-3" d="M137.9 66a1.8 1.8 0 0 1-1.9-1.8 1.9 1.9 0 1 1 1.9 1.8zM138.9 48.7a9.8 9.8 0 0 1 .8 4.2c0 4.4-3 7.3-7.5 7.3a7.4 7.4 0 0 1-7.8-7.9 8.9 8.9 0 0 1 .8-3.7l2.1.6a6.2 6.2 0 0 0-.7 3.1c0 3.4 2.5 5.2 5.5 5.2s5.5-2.2 5.5-5.1a7.6 7.6 0 0 0-.7-3.3zM132 32.5c5.4 0 7.8 3.8 7.8 7.3s-2.9 7-7.5 7-7.8-3.2-7.8-7.3 3-7 7.5-7zm.2 11.6c3.2 0 5.6-1.8 5.6-4.5s-2.4-4.5-5.7-4.5-5.6 1.2-5.6 4.4 2.8 4.6 5.6 4.6zM128.7 29.1h-4v-2.2h2.4a5.1 5.1 0 0 1-2.7-4.6 4.3 4.3 0 0 1 2.9-4.1 6 6 0 0 1-1.9-1.6 5 5 0 0 1-1-3.2c0-1.9 1.3-4.8 6.4-4.8h8.6v2.6h-8.3c-2.8 0-4.5 1-4.5 3.2a3.4 3.4 0 0 0 2.4 3.1l1.3.2h9.1v2.6h-8.8c-2.3 0-4 1-4 3.1a3.6 3.6 0 0 0 2.7 3.3l1.3.2h8.8v2.6z"/></g></symbol><symbol id="svg-icon-test-logo" viewBox="0 0 75 44"><title>app_icons</title><path d="M23.43 39.29c-1.55 0-2.16-.72-2.16-2.08V32.8c0-1.89-.85-2.69-2.1-2.69s-1.93.81-1.93 2.37v6.81h-.76a1.91 1.91 0 0 1-2.08-2.08V32.8c0-1.89-.87-2.69-2.12-2.69s-1.93.87-1.93 2.44v6.74h-.77a2 2 0 0 1-2.06-2.08v-4.43c0-3.12 1.63-5.19 5.09-5.19a4.21 4.21 0 0 1 3.48 1.78 3.89 3.89 0 0 1 3.29-1.78 4.46 4.46 0 0 1 4.75 4.83v6.87zM28.13 43a1.85 1.85 0 0 1-2-1.76v-.55l1.61-.11c1-.06 1.4-.49 2-2.1a36.22 36.22 0 0 1-4-10.64h1.51a1.66 1.66 0 0 1 1.65 1.34 24.6 24.6 0 0 0 2.29 6.59 32.22 32.22 0 0 0 2.23-7.93h1.23c.91 0 1.34.4 1.34 1.34 0 1.21-2 6.42-2.52 7.65-2.16 5-3.28 6.17-5.34 6.17z" fill="#efaf1e"/><path d="M45.33 25.91v6.83a34.55 34.55 0 0 1 3.5-4.16 2.93 2.93 0 0 1 2.27-.74h1.63v.11a60.28 60.28 0 0 0-4.64 5.19c.91 1.12 1.8 2.29 2.82 3.33a4.81 4.81 0 0 0 2.2 1.53 1.75 1.75 0 0 1-1.93 1.4 2.79 2.79 0 0 1-1.87-.78 48.73 48.73 0 0 1-4-4.88v5.58h-.91c-1.31 0-2-.68-2-2V24h.91a1.73 1.73 0 0 1 2.02 1.91zM56.24 27a1.67 1.67 0 0 1-1.65-1.67 1.66 1.66 0 0 1 1.65-1.65 1.67 1.67 0 0 1 1.67 1.65A1.69 1.69 0 0 1 56.24 27zm2 12.36c-2.2 0-3.41-1.25-3.41-3.56v-7.7h.81a1.86 1.86 0 0 1 2 2.12v5.34c0 1.14.49 1.51 1.74 1.51H60v.61c0 1.23-.53 1.72-1.74 1.72zM66.33 39.54A5.54 5.54 0 0 1 61 33.78c0-3.75 1.82-6.19 5.15-6.19a3.33 3.33 0 0 1 2.85 1.8V24h.87a1.75 1.75 0 0 1 2 1.93V34c-.05 3.34-1.61 5.54-5.54 5.54zM66.19 30c-1.44 0-2.37 1.4-2.37 3.24 0 2.37 1.23 3.92 2.86 3.92S69 36 69 33.88C69 31 67.71 30 66.19 30z" fill="#7ac943"/><path d="M9.22 23.41a4.22 4.22 0 0 1-3.64-2.14v19H4.45a2.46 2.46 0 0 1-2.52-2.49V16.42c0-4.79 2.14-8.11 7.23-8.11 3.83 0 6.56 3.48 6.56 7.12.01 4.63-2.3 7.98-6.5 7.98zM8.6 11.49c-2 0-3.08 1.71-3.08 4.2 0 2.89 1.42 4.53 3.56 4.53 1.74 0 2.95-1.55 2.95-3.86C12 13 10.91 11.49 8.6 11.49zM20.76 7.61a2.11 2.11 0 0 1-2.09-2.11 2.09 2.09 0 0 1 2.09-2.09 2.11 2.11 0 0 1 2.12 2.09 2.14 2.14 0 0 1-2.12 2.11zm2.54 15.61c-2.78 0-4.31-1.58-4.31-4.5V8.95h1a2.35 2.35 0 0 1 2.57 2.68v6.75c0 1.45.62 1.9 2.2 1.9h.67v.78c.02 1.55-.6 2.16-2.12 2.16zM31.2 6.19v8.62a43.65 43.65 0 0 1 4.42-5.25 3.7 3.7 0 0 1 2.87-.94h2.06v.13a76.07 76.07 0 0 0-5.86 6.56c1.15 1.42 2.28 2.89 3.56 4.2A6.07 6.07 0 0 0 41 21.4a2.21 2.21 0 0 1-2.44 1.77 3.52 3.52 0 0 1-2.36-1 61.58 61.58 0 0 1-5-6.16v7h-1.15c-1.66 0-2.46-.86-2.46-2.54V3.81h1.15a2.18 2.18 0 0 1 2.46 2.38z" fill="#3fa9f5"/><path d="M70.79 8a8.4 8.4 0 0 0-7.72-6.8C60.35.92 57.59 1 54.85.93a2 2 0 0 0-1 .17 25.11 25.11 0 0 0-3.17.08h-.94a7.4 7.4 0 0 0-3.74.77 2.31 2.31 0 0 0-.64.43 4.51 4.51 0 0 0-.34.39A6 6 0 0 0 43.88 4a14.18 14.18 0 0 0-1.69 12.81 8.25 8.25 0 0 0 5.58 5.43 18.56 18.56 0 0 0 7.09.74 32.37 32.37 0 0 0 4.58 0h.07a10.16 10.16 0 0 0 1.93-.08 21 21 0 0 0 4.91-.59l.31-.07a5.84 5.84 0 0 0 3.92-4A17.57 17.57 0 0 0 70.79 8z" fill="#efaf1e" fill-rule="evenodd"/><path fill="#fff" fill-rule="evenodd" d="M52.09 18.76l4.8 4.1 5.9-5 1.67-2.72.55-1.75-.7-1.47-1.4-.59h-2.19l-2.17-1.04-2.09-.48h-1.55l-1.3.51-1.36.69-1.54.58-1.98.26-.52 1.04v1.46l.83 1.09 2.39 1.73.66 1.59z"/><path d="M60 17.36l-1.46-.13a3.13 3.13 0 0 0-.61 0c-.07 0-.13.1-.2.15s.11.14.18.17.25.09.38.15a2.55 2.55 0 0 0-1.62.42c-.5.27-.93.69-1.43 1l.45-.4c.26-.23.53-.44.78-.68s.31-.34.14-.57-.4-.12-.59 0c-.35.19-.69.42-1 .62a4.74 4.74 0 0 1-.49.21v-.07c.14-.16.29-.32.41-.5a.8.8 0 0 0 .16-.83c-.1-.23-.26-.24-.42 0s-.22.24-.39.41l-2.28-2.22c-.12-.12-.23-.25-.35-.36a.76.76 0 0 1-.29-.61 4.18 4.18 0 0 0-.17-.79v-.23a1.35 1.35 0 0 0-.06-.22c-.09 0-.23 0-.26.11a3.87 3.87 0 0 0-.18.58l-.45-.66a.65.65 0 0 0-.15-.18 1.88 1.88 0 0 0-.3-.13 1 1 0 0 0 0 .38c.09.23.23.44.32.71-.25-.16-.5-.32-.76-.46a.93.93 0 0 0-.34 0c0 .11 0 .26.11.34a6.11 6.11 0 0 0 .58.48 5.86 5.86 0 0 0-.66-.13.92.92 0 0 0-.31.09c.07.09.11.21.2.26.24.13.5.22.81.35h-.66a.81.81 0 0 0-.24.11c.07.07.14.18.22.19.38.06.76.1 1.14.12a1.34 1.34 0 0 1 .92.47l2.16 2.42a1.75 1.75 0 0 0-1 1.07 62.21 62.21 0 0 1-6-6.63 10.56 10.56 0 0 1-1.64-3.92A5 5 0 0 1 47.15 3a7.11 7.11 0 0 1 4.22-.93 5.85 5.85 0 0 1 3.35 1.23 9.06 9.06 0 0 1 2 2.35l.2.31c.08-.11.13-.2.19-.28a22.35 22.35 0 0 1 1.62-2.06 5.92 5.92 0 0 1 4.78-1.56 6.47 6.47 0 0 1 3.38 1.1 4.86 4.86 0 0 1 2.36 4.51 9.08 9.08 0 0 1-1.33 4 26.85 26.85 0 0 1-4.5 5.49c-.22.22-.41.48-.59.68l-1.33-1.12c.23-.49.48-1.05.75-1.6a1.41 1.41 0 0 1 .75-.72c.3-.11.61-.22.9-.36.11-.05.18-.18.26-.28a1.41 1.41 0 0 0-.37 0 4 4 0 0 0-.52.17c.25-.23.48-.44.7-.66 0 0 0-.14.07-.21s-.17-.05-.24 0c-.22.09-.43.2-.69.32a5.94 5.94 0 0 0 .39-.61v-.34a1.17 1.17 0 0 0-.29.15c-.21.21-.41.43-.66.7.06-.32.13-.57.16-.83a.93.93 0 0 0-.1-.34c-.09.08-.23.15-.27.26-.13.29-.22.6-.33.92a4.25 4.25 0 0 0-.32-.48c-.05-.06-.18-.07-.27-.1s-.06.19 0 .25a4 4 0 0 1 .14.88 1.6 1.6 0 0 1-.37 1.29c-.27.45-.56.88-.82 1.33a.33.33 0 0 1-.46.17 3.74 3.74 0 0 0-.45-.14 1.43 1.43 0 0 0-.27 0v.3a5.82 5.82 0 0 0 .58.45l.17.1zm-6-6.46l-.06.07c-.17.3-.35.6-.49.92a1.34 1.34 0 0 1-.61.82 1.61 1.61 0 0 0-.23.16.92.92 0 0 0 1.24.15 2.11 2.11 0 0 0 .61-.87.82.82 0 0 1 1.4-.32l-.1.06a2.48 2.48 0 0 0-1.23 1.67c0 .08 0 .24.07.27a9.81 9.81 0 0 0 1.09.52 1 1 0 0 0 1.12-.27c.17-.19.31-.4.46-.6a1.32 1.32 0 0 1-1.87.92c-.29-.12-.57-.27-.86-.38s-.42 0-.44.24a.68.68 0 0 0 .15.53 1.48 1.48 0 0 1 .44.73 3.86 3.86 0 0 0 .29.55 2.22 2.22 0 0 0 2.38 1A2.34 2.34 0 0 0 59 15.3a1 1 0 0 1 .26-.42.52.52 0 0 0-.13-.91.33.33 0 0 1-.14-.19 3 3 0 0 0-.89-1.49 2.1 2.1 0 0 0-1.25-.58h-.56c-.15-.66-.3-1.3-1.1-1.41a1.1 1.1 0 0 0-1.25.6zm5.21-5.4h-.06a2.19 2.19 0 0 0-2 3.32.81.81 0 0 1 .09.33A3.5 3.5 0 0 0 58.71 12a2.62 2.62 0 0 0 3.15-.26 4.27 4.27 0 0 0 1.26-3c0-.49-.27-.67-.71-.45s-.57.39-.88.54a1.77 1.77 0 0 1-.71.22 1.89 1.89 0 0 1-1.46-.82c.15.11.28.23.43.32a1.45 1.45 0 0 0 2 0 2.41 2.41 0 0 1 .68-.4.52.52 0 0 1 .75.53 7.33 7.33 0 0 1-.16.89.73.73 0 0 0 0 .34A2.9 2.9 0 0 0 66 11.66a2.25 2.25 0 0 0 1.28-.82c-1 0-1.3-.23-1.61-1.12a1.65 1.65 0 0 1-.11-.4c-.07-.73-.13-1.47-.17-2.2A6.83 6.83 0 0 0 65 4.93a3.27 3.27 0 0 0-3.51-2.1 2.69 2.69 0 0 0-2.27 2c-.02.17-.04.43-.07.67zm-9-.78a1.53 1.53 0 0 0-2 1.3 2.56 2.56 0 0 0 .55 2c.12.18.32.41.48.41s.29-.29.41-.41a1.9 1.9 0 0 1-.06.24c-.16.43-.45.49-.74.13a3.49 3.49 0 0 1-.4-.62c-.13-.26-.32-.22-.47-.08a.54.54 0 0 0-.18.4A6.36 6.36 0 0 0 48 9c.08.18.19.35.27.53s.08.28.13.42a3 3 0 0 0 4.72 1.4 4 4 0 0 0 1.27-1.71 2.89 2.89 0 0 1-1.6-1.28c-.49-.77-1-1.55-1.46-2.38a9.43 9.43 0 0 1 .61.73c.2.29.35.61.53.92A4.44 4.44 0 0 0 54 9.28c.42.25.62.2.84-.21a3.66 3.66 0 0 0-1.73-5 2.27 2.27 0 0 0-2.96.65z" fill="#efaf1e" fill-rule="evenodd"/><path d="M58 19.25a6.72 6.72 0 0 0 2.35.71l-.26.24c-1 .85-2 1.7-3 2.56-.17.15-.28.15-.44 0s-.59-.51-.83-.71c.42-.36.83-.7 1.22-1.06a1.1 1.1 0 0 0 .28-.37 1.52 1.52 0 0 0 0-.44 2.55 2.55 0 0 0-.38.06 2.27 2.27 0 0 0-.35.19c.23-.26.42-.46.58-.68s.3-.61.13-.72-.44.06-.63.17a4.41 4.41 0 0 0-.36.26l1.14-1.28 1.87.41-1-.16a3.46 3.46 0 0 0-.56 0c-.06 0-.12.07-.19.11s.07.16.12.18a7.87 7.87 0 0 0 .78.26c.33.09.67.16 1 .25a4.27 4.27 0 0 0-1.47.02z" fill="#efaf1e" fill-rule="evenodd"/><path d="M59.15 5.5c0-.24.06-.48.11-.72a2.69 2.69 0 0 1 2.27-2A3.27 3.27 0 0 1 65 4.93a6.83 6.83 0 0 1 .36 2.2c0 .74.11 1.47.17 2.2a1.65 1.65 0 0 0 .11.4c.31.88.64 1.12 1.61 1.12a2.25 2.25 0 0 1-1.28.82 2.9 2.9 0 0 1-2.95-1.73.73.73 0 0 1 0-.34 7.33 7.33 0 0 0 .16-.89.52.52 0 0 0-.75-.53 2.41 2.41 0 0 0-.68.4 1.45 1.45 0 0 1-2 0c-.15-.09-.28-.21-.43-.32a1.89 1.89 0 0 0 1.46.82 1.77 1.77 0 0 0 .71-.22c.3-.16.57-.39.88-.54s.75 0 .71.45a4.27 4.27 0 0 1-1.26 3 2.62 2.62 0 0 1-3.15.26 3.5 3.5 0 0 1-1.53-2.84.81.81 0 0 0-.09-.33 2.19 2.19 0 0 1 2-3.32zm.23-.17a2.85 2.85 0 0 1 2.35-2A3.23 3.23 0 0 1 65 5.3a.4.4 0 0 0 0-.11A3 3 0 0 0 61.48 3a2.39 2.39 0 0 0-2.1 2.34zm-2.19 3.3a4.47 4.47 0 0 1 .65-1.8 1.84 1.84 0 0 0-.66 1.81zM50.15 4.72A2.27 2.27 0 0 1 53.09 4a3.66 3.66 0 0 1 1.73 5c-.22.41-.42.46-.84.21a4.44 4.44 0 0 1-1.49-1.64c-.18-.31-.33-.63-.53-.92a9.43 9.43 0 0 0-.62-.65c.51.83 1 1.62 1.46 2.38a2.89 2.89 0 0 0 1.6 1.28 4 4 0 0 1-1.27 1.71A3 3 0 0 1 48.42 10c-.05-.14-.07-.29-.13-.42S48.1 9.19 48 9a6.36 6.36 0 0 1-.34-1 .54.54 0 0 1 .18-.4c.16-.15.34-.18.47.08a3.49 3.49 0 0 0 .4.62c.29.36.58.3.74-.13a1.9 1.9 0 0 0 .09-.17c-.12.13-.26.41-.41.41s-.36-.23-.48-.41a2.56 2.56 0 0 1-.55-2 1.53 1.53 0 0 1 2.05-1.28zm.31-.17a3.15 3.15 0 0 1 3.54.4c-.79-1.04-2.82-1.23-3.54-.39zM53.94 10.9a1.1 1.1 0 0 1 1.22-.61c.8.11.95.76 1.1 1.41h.56a2.1 2.1 0 0 1 1.25.58 3 3 0 0 1 .93 1.49.33.33 0 0 0 .14.19.52.52 0 0 1 .13.91 1 1 0 0 0-.26.42 2.34 2.34 0 0 1-1.67 1.81 2.22 2.22 0 0 1-2.38-1 3.86 3.86 0 0 1-.29-.55 1.48 1.48 0 0 0-.44-.73.68.68 0 0 1-.15-.53c0-.23.23-.32.44-.24s.57.26.86.38a1.32 1.32 0 0 0 1.87-.92c-.15.19-.29.41-.46.6a1 1 0 0 1-1.12.27 9.81 9.81 0 0 1-1.09-.52c-.06 0-.09-.19-.07-.27a2.48 2.48 0 0 1 1.23-1.67l.1-.06a.82.82 0 0 0-1.4.32 2.11 2.11 0 0 1-.61.87.92.92 0 0 1-1.24-.15 1.61 1.61 0 0 1 .23-.16 1.34 1.34 0 0 0 .61-.82c.13-.32.32-.61.49-.92a.56.56 0 0 0 .2 0 1.37 1.37 0 0 1 1.71.41l.18.2c-.06-.7-.41-1.13-1-1.18a1.34 1.34 0 0 0-1.07.47z" fill="#fff" fill-rule="evenodd"/><path d="M53.94 10.9a1.34 1.34 0 0 1 1.06-.51c.54.05.9.49 1 1.18l-.18-.2a1.37 1.37 0 0 0-1.75-.37.56.56 0 0 1-.2 0zM59.38 5.34A2.39 2.39 0 0 1 61.48 3 3 3 0 0 1 65 5.19a.4.4 0 0 1 0 .11 3.23 3.23 0 0 0-3.29-1.93 2.85 2.85 0 0 0-2.33 1.97zM57.18 8.64a1.84 1.84 0 0 1 .66-1.77 4.47 4.47 0 0 0-.65 1.8zM50.46 4.56c.71-.83 2.74-.64 3.57.39a3.15 3.15 0 0 0-3.57-.39zM54.51 1.19c-.94.13-1.89.27-2.83.47M54.64 1c-2.09.14-4.12.67-6.21.95" fill="#efaf1e" fill-rule="evenodd"/></symbol></svg>